<svg width="229" height="65" viewBox="0 0 229 65" fill="none" xmlns="http://www.w3.org/2000/svg">
<path fill-rule="evenodd" clip-rule="evenodd" d="M5.8144 2H58.8038C60.9015 2 62.6181 3.71377 62.6181 5.80844V58.5392C62.6181 60.6339 60.9015 62.3477 58.8038 62.3477H5.8144C3.71645 62.3477 2 60.6339 2 58.5392V5.80844C2 3.71377 3.71645 2 5.8144 2Z" stroke="#2C2C2C" stroke-width="3.51987" stroke-miterlimit="22.9256"/>
<path d="M33.139 15.9144C39.6108 15.9144 45.7689 19.2421 48.1392 24.7747L40.5339 29.5302C40.1907 28.9351 39.79 28.3523 39.3245 27.8122C39.0035 27.4301 38.6481 27.0789 38.2633 26.7632C36.9606 25.6751 35.2813 24.9367 33.139 24.9367C32.4653 24.9367 31.7718 25.0551 31.0882 25.2749C29.4724 25.7396 28.0661 26.7088 27.0441 28.004C25.8849 29.3589 25.1219 31.0652 25.1219 32.9203C25.1219 34.9975 25.9189 36.8893 27.2244 38.3093C28.0164 39.2434 29.0149 39.9915 30.1483 40.4807L24.3435 47.5141C19.3773 44.5382 16.0546 39.1193 16.0546 32.9272C16.0546 23.5314 23.7035 15.9144 33.139 15.9144Z" fill="#2C2C2C" stroke="#2C2C2C" stroke-width="0.0377953"/>
<path d="M48.5581 40.8187C46.9482 44.0723 44.3603 46.7415 41.1848 48.4285L34.4094 41.0382C37.3635 40.6055 39.7921 38.5278 40.7651 35.7502L48.5581 40.8187Z" fill="#2C2C2C" stroke="#2C2C2C" stroke-width="0.0377953"/>
<path d="M105.849 38.3403C106.249 39.4767 106.919 40.3503 107.853 40.9682C108.788 41.586 109.865 41.8986 111.091 41.8986C112.019 41.8986 112.846 41.7495 113.567 41.4581C114.287 41.1669 114.957 40.7551 115.585 40.2153L118.88 44.9454C117.81 45.8974 116.583 46.6289 115.193 47.1474C113.802 47.6658 112.276 47.9285 110.621 47.9285C108.353 47.9285 106.313 47.3959 104.501 46.3307C102.69 45.265 101.277 43.8306 100.257 42.0265C99.2376 40.2223 98.724 38.2621 98.724 36.1455C98.724 33.9864 99.2089 31.9978 100.179 30.1795C101.149 28.3613 102.497 26.9196 104.216 25.854C105.935 24.7887 107.875 24.2559 110.043 24.2559C112.425 24.2559 114.472 24.746 116.184 25.7333C117.896 26.7205 119.194 28.0985 120.078 29.8598C120.963 31.6213 121.405 33.6454 121.405 35.9325C121.405 36.7138 121.341 37.5163 121.212 38.3403H105.849ZM110.343 30.0303C109.187 30.0303 108.21 30.3429 107.404 30.9678C106.598 31.5929 106.035 32.4949 105.721 33.6739H114.793C114.494 32.4806 113.966 31.5716 113.203 30.9537C112.44 30.3356 111.484 30.0303 110.343 30.0303ZM137.431 24.2773C138.359 24.2773 139.279 24.4336 140.192 24.746C141.105 25.0588 141.975 25.5203 142.802 26.1311L139.614 31.9905C138.573 31.2521 137.539 30.8826 136.511 30.8826C135.755 30.8826 135.056 31.0815 134.407 31.4863C133.758 31.8912 133.231 32.4879 132.831 33.2762C132.432 34.0646 132.232 34.995 132.232 36.0603V47.3107H125V24.7248H130.563L131.633 27.4948C132.275 26.472 133.088 25.6764 134.072 25.1154C135.056 24.5544 136.176 24.2773 137.431 24.2773ZM151.896 47.3107H144.707V15.3496H151.896V47.3107ZM162.616 38.3403C163.015 39.4767 163.686 40.3503 164.62 40.9682C165.554 41.586 166.631 41.8986 167.858 41.8986C168.785 41.8986 169.613 41.7495 170.333 41.4581C171.054 41.1669 171.724 40.7551 172.352 40.2153L175.647 44.9454C174.577 45.8974 173.35 46.6289 171.959 47.1474C170.568 47.6658 169.042 47.9285 167.387 47.9285C165.119 47.9285 163.08 47.3959 161.268 46.3307C159.456 45.265 158.044 43.8306 157.024 42.0265C156.004 40.2223 155.491 38.2621 155.491 36.1455C155.491 33.9864 155.976 31.9978 156.946 30.1795C157.916 28.3613 159.264 26.9196 160.983 25.854C162.701 24.7887 164.641 24.2559 166.81 24.2559C169.192 24.2559 171.239 24.746 172.951 25.7333C174.662 26.7205 175.961 28.0985 176.845 29.8598C177.729 31.6213 178.172 33.6454 178.172 35.9325C178.172 36.7138 178.107 37.5163 177.979 38.3403H162.616ZM167.109 30.0303C165.954 30.0303 164.977 30.3429 164.171 30.9678C163.365 31.5929 162.801 32.4949 162.487 33.6739H171.56C171.26 32.4806 170.733 31.5716 169.969 30.9537C169.206 30.3356 168.25 30.0303 167.109 30.0303ZM194.754 47.3107H187.693L178.642 24.7248H186.602L191.224 39.1712L195.867 24.7248H203.848L194.754 47.3107ZM222.956 24.7248H228.305V47.3107H222.742L221.95 45.265C220.324 46.984 218.241 47.8435 215.702 47.8435C213.62 47.8435 211.708 47.3107 209.961 46.2525C208.213 45.1941 206.822 43.7594 205.795 41.9484C204.768 40.1373 204.255 38.1628 204.255 36.0178C204.255 33.8871 204.768 31.9196 205.795 30.1156C206.822 28.3115 208.213 26.884 209.968 25.8328C211.722 24.7815 213.634 24.2559 215.702 24.2559C218.256 24.2559 220.367 25.1438 222.036 26.9196L222.956 24.7248ZM216.387 41.1316C217.329 41.1316 218.184 40.9113 218.947 40.4781C219.711 40.0448 220.31 39.4483 220.752 38.6811C221.194 37.9141 221.415 37.0475 221.415 36.0816C221.415 35.1157 221.201 34.2421 220.766 33.4608C220.331 32.6795 219.732 32.0687 218.969 31.6284C218.206 31.1881 217.357 30.9678 216.43 30.9678C215.488 30.9678 214.639 31.1881 213.884 31.6284C213.127 32.0687 212.535 32.6795 212.1 33.4608C211.665 34.2421 211.444 35.1157 211.444 36.0816C211.444 37.0475 211.658 37.9141 212.086 38.6811C212.514 39.4483 213.106 40.0448 213.855 40.4781C214.604 40.9113 215.446 41.1316 216.387 41.1316Z" fill="#2C2C2C"/>
<path fill-rule="evenodd" clip-rule="evenodd" d="M84.4152 24.2202C88.8803 24.2202 93.1305 26.5181 94.7623 30.3404L89.5036 33.6287C89.2662 33.2153 88.9883 32.8104 88.6652 32.4357C88.4448 32.1731 88.2006 31.9316 87.9361 31.7147C87.041 30.9672 85.8874 30.4598 84.4152 30.4598C83.9528 30.4598 83.4765 30.5412 83.0066 30.6922C81.8965 31.0114 80.9299 31.6776 80.2277 32.5675C79.431 33.4987 78.9069 34.6711 78.9069 35.9453C78.9069 37.3725 79.4545 38.6723 80.3518 39.6481C80.8994 40.2942 81.5913 40.811 82.3768 41.147L78.3606 46.0129C74.9314 43.9622 72.6361 40.2232 72.6361 35.9499C72.6361 29.4718 77.9099 24.2202 84.4152 24.2202Z" fill="#2C2C2C"/>
<path fill-rule="evenodd" clip-rule="evenodd" d="M89.9537 46.6425L85.264 41.527C87.31 41.2369 88.993 39.7985 89.6606 37.8745L95.0512 41.3806C93.9402 43.6317 92.1504 45.4777 89.9537 46.6425Z" fill="#2C2C2C"/>
</svg>
