<svg width="26" height="26" viewBox="0 0 26 26" fill="none" xmlns="http://www.w3.org/2000/svg">
<path d="M1 13C1 7.34358 1 4.51411 2.75705 2.75705C4.51411 1 7.34232 1 13 1C18.6564 1 21.4859 1 23.2429 2.75705C25 4.51411 25 7.34232 25 13C25 18.6564 25 21.4859 23.2429 23.2429C21.4859 25 18.6577 25 13 25C7.34358 25 4.51411 25 2.75705 23.2429C1 21.4859 1 18.6577 1 13Z" stroke="#2C2C2C" stroke-width="2" stroke-linecap="round" stroke-linejoin="round"/>
<path d="M19.9575 6.05273H19.9448M18.6842 13.0001C18.6842 14.5076 18.0853 15.9535 17.0194 17.0194C15.9534 18.0854 14.5076 18.6843 13 18.6843C11.4925 18.6843 10.0467 18.0854 8.98066 17.0194C7.91467 15.9535 7.3158 14.5076 7.3158 13.0001C7.3158 11.4926 7.91467 10.0468 8.98066 8.98076C10.0467 7.91476 11.4925 7.31589 13 7.31589C14.5076 7.31589 15.9534 7.91476 17.0194 8.98076C18.0853 10.0468 18.6842 11.4926 18.6842 13.0001Z" stroke="#2C2C2C" stroke-width="2" stroke-linecap="round" stroke-linejoin="round"/>
</svg>
