<svg width="351" height="97" viewBox="0 0 351 97" fill="none" xmlns="http://www.w3.org/2000/svg">
<path fill-rule="evenodd" clip-rule="evenodd" d="M7.88123 2H89.5829C92.8173 2 95.4641 4.63657 95.4641 7.85914V88.9834C95.4641 92.206 92.8173 94.8426 89.5829 94.8426H7.88123C4.64651 94.8426 2 92.206 2 88.9834V7.85914C2 4.63657 4.64651 2 7.88123 2Z" stroke="#3A3A3A" stroke-width="3.51987" stroke-miterlimit="22.9256"/>
<path fill-rule="evenodd" clip-rule="evenodd" d="M50.0116 23.3777C60.0077 23.3777 69.5232 28.5109 73.1763 37.0494L61.4032 44.3949C60.8715 43.4714 60.2498 42.5671 59.5265 41.73C59.0326 41.1434 58.486 40.6043 57.8941 40.1197C55.8903 38.4497 53.3074 37.3163 50.0116 37.3163C48.976 37.3163 47.9097 37.498 46.8581 37.8354C44.3724 38.5486 42.2089 40.0363 40.6367 42.0246C38.8528 44.1049 37.6796 46.7237 37.6796 49.5697C37.6796 52.758 38.9056 55.6617 40.914 57.8411C42.1406 59.2849 43.6893 60.4391 45.4476 61.1897L36.4567 72.0594C28.7793 67.4789 23.6409 59.1263 23.6409 49.5803C23.6409 35.1091 35.4475 23.3777 50.0116 23.3777Z" fill="#3A3A3A"/>
<path fill-rule="evenodd" clip-rule="evenodd" d="M62.4108 73.4649L51.9116 62.038C56.4923 61.3897 60.2601 58.1769 61.7546 53.8789L73.823 61.7109C71.3357 66.7391 67.3289 70.8631 62.4108 73.4649Z" fill="#3A3A3A"/>
<path d="M110.556 69.4331C110.427 69.4331 110.321 69.3911 110.234 69.3069C110.147 69.2229 110.103 69.1206 110.103 69.0006C110.103 68.8763 110.145 68.7703 110.23 68.684C110.314 68.598 110.423 68.5557 110.556 68.5557C110.69 68.5557 110.8 68.598 110.887 68.684C110.974 68.7703 111.016 68.8763 111.016 69.0006C111.016 69.1206 110.974 69.2229 110.887 69.3069C110.8 69.3911 110.69 69.4331 110.556 69.4331ZM110.865 77.2991H110.266V71.1277H110.865V77.2991ZM120.691 70.9894C121.182 70.9894 121.612 71.0897 121.979 71.292C122.346 71.4943 122.63 71.7909 122.831 72.1814C123.033 72.572 123.134 73.0446 123.134 73.5974V77.2991H122.529V73.6757C122.529 72.9986 122.358 72.4777 122.013 72.1131C121.668 71.7486 121.19 71.5663 120.582 71.5663C120.195 71.5663 119.834 71.6606 119.497 71.8489C119.161 72.0371 118.89 72.2974 118.689 72.63C118.487 72.9626 118.386 73.3391 118.386 73.7597V77.2991H117.788V71.1277H118.362V72.2574C118.495 72.0172 118.681 71.8009 118.916 71.6086C119.153 71.4163 119.423 71.264 119.729 71.1537C120.035 71.0437 120.356 70.9894 120.691 70.9894ZM132.549 77.4494C131.968 77.4494 131.434 77.3071 130.944 77.0229C130.454 76.7383 130.065 76.3497 129.779 75.8569C129.492 75.3643 129.349 74.8214 129.349 74.2286C129.349 73.6354 129.492 73.0909 129.779 72.596C130.065 72.1011 130.454 71.7106 130.944 71.4243C131.434 71.1377 131.97 70.9954 132.555 70.9954C133.135 70.9954 133.672 71.1377 134.161 71.4243C134.651 71.7106 135.038 72.1011 135.324 72.596C135.611 73.0909 135.754 73.6354 135.754 74.2286C135.754 74.8174 135.611 75.3583 135.324 75.8509C135.038 76.3437 134.651 76.7323 134.161 77.0189C133.672 77.3051 133.133 77.4494 132.549 77.4494ZM132.561 76.8786C133.032 76.8786 133.468 76.7623 133.865 76.53C134.262 76.2977 134.577 75.9791 134.808 75.5746C135.04 75.17 135.155 74.7211 135.155 74.2286C135.155 73.7397 135.04 73.2911 134.808 72.8843C134.577 72.4777 134.262 72.1574 133.865 71.9229C133.468 71.6886 133.032 71.5726 132.561 71.5726C132.085 71.5726 131.647 71.6886 131.248 71.9229C130.849 72.1574 130.533 72.4777 130.299 72.8843C130.065 73.2911 129.948 73.7397 129.948 74.2286C129.948 74.7211 130.065 75.17 130.299 75.5746C130.533 75.9791 130.849 76.2977 131.248 76.53C131.647 76.7623 132.085 76.8786 132.561 76.8786ZM144.358 77.2991H143.753L141.171 71.1277H141.824L144.061 76.602L146.293 71.1277H146.946L144.358 77.2991ZM157.794 71.1277H158.399V77.2991H157.806V75.9951L157.812 75.9111C157.558 76.3757 157.216 76.7463 156.784 77.0229C156.353 77.2991 155.865 77.4374 155.321 77.4374C154.768 77.4374 154.262 77.2951 153.803 77.0106C153.343 76.7263 152.98 76.3377 152.714 75.8469C152.448 75.3563 152.315 74.8154 152.315 74.2226C152.315 73.6294 152.448 73.0869 152.714 72.594C152.98 72.1011 153.343 71.7106 153.803 71.4243C154.262 71.1377 154.768 70.9954 155.321 70.9954C155.857 70.9954 156.341 71.1297 156.77 71.4003C157.2 71.6706 157.54 72.0371 157.794 72.4977V71.1277ZM155.351 76.8606C155.81 76.8606 156.23 76.7443 156.609 76.514C156.988 76.2837 157.286 75.9691 157.502 75.5686C157.718 75.168 157.824 74.7191 157.824 74.2226C157.824 73.7297 157.715 73.2811 157.498 72.8783C157.28 72.4757 156.984 72.1594 156.607 71.9269C156.23 71.6946 155.81 71.5786 155.351 71.5786C154.896 71.5786 154.482 71.6946 154.111 71.9269C153.74 72.1594 153.448 72.4757 153.234 72.8783C153.021 73.2811 152.914 73.7297 152.914 74.2226C152.914 74.7191 153.021 75.168 153.234 75.5686C153.448 75.9691 153.74 76.2837 154.111 76.514C154.482 76.7443 154.896 76.8606 155.351 76.8606ZM170.372 76.524C170.11 76.7763 169.813 76.9806 169.481 77.1389C169.148 77.2971 168.791 77.3954 168.412 77.4314C168.509 77.5917 168.592 77.7557 168.658 77.926C168.725 78.0963 168.757 78.2486 168.757 78.3809C168.757 78.6131 168.666 78.8034 168.483 78.9517C168.299 79.1 167.995 79.198 167.571 79.246L167.475 78.8494C167.693 78.8214 167.856 78.7814 167.965 78.7294C168.074 78.6771 168.146 78.6192 168.18 78.5571C168.215 78.4949 168.231 78.4189 168.231 78.3266C168.231 78.1143 168.126 77.82 167.916 77.4434C167.352 77.4194 166.838 77.2611 166.372 76.9686C165.906 76.6763 165.537 76.2897 165.265 75.8089C164.993 75.3283 164.856 74.8014 164.856 74.2286C164.856 73.6354 165.001 73.0929 165.289 72.6C165.578 72.1071 165.967 71.7166 166.459 71.4283C166.951 71.1397 167.489 70.9954 168.074 70.9954C168.525 70.9954 168.946 71.0757 169.336 71.238C169.725 71.4003 170.067 71.6306 170.366 71.9269L170.033 72.3537C169.771 72.0971 169.477 71.8989 169.15 71.7609C168.824 71.6226 168.473 71.5543 168.098 71.5543C167.622 71.5543 167.182 71.6726 166.777 71.9089C166.372 72.1454 166.049 72.4677 165.812 72.8763C165.574 73.2851 165.455 73.7357 165.455 74.2286C165.455 74.7171 165.576 75.164 165.816 75.5706C166.056 75.9771 166.376 76.2977 166.779 76.532C167.182 76.7663 167.622 76.8846 168.098 76.8846C168.477 76.8846 168.832 76.8163 169.16 76.6803C169.489 76.544 169.781 76.3517 170.039 76.1034L170.372 76.524ZM181.425 71.1277H182.03V77.2991H181.437V75.9951L181.443 75.9111C181.189 76.3757 180.847 76.7463 180.415 77.0229C179.984 77.2991 179.496 77.4374 178.952 77.4374C178.399 77.4374 177.893 77.2951 177.434 77.0106C176.974 76.7263 176.611 76.3377 176.345 75.8469C176.079 75.3563 175.946 74.8154 175.946 74.2226C175.946 73.6294 176.079 73.0869 176.345 72.594C176.611 72.1011 176.974 71.7106 177.434 71.4243C177.893 71.1377 178.399 70.9954 178.952 70.9954C179.488 70.9954 179.972 71.1297 180.401 71.4003C180.831 71.6706 181.171 72.0371 181.425 72.4977V71.1277ZM178.982 76.8606C179.441 76.8606 179.861 76.7443 180.24 76.514C180.619 76.2837 180.917 75.9691 181.133 75.5686C181.349 75.168 181.456 74.7191 181.456 74.2226C181.456 73.7297 181.347 73.2811 181.129 72.8783C180.911 72.4757 180.615 72.1594 180.238 71.9269C179.861 71.6946 179.441 71.5786 178.982 71.5786C178.527 71.5786 178.113 71.6946 177.742 71.9269C177.371 72.1594 177.079 72.4757 176.865 72.8783C176.652 73.2811 176.545 73.7297 176.545 74.2226C176.545 74.7191 176.652 75.168 176.865 75.5686C177.079 75.9691 177.371 76.2837 177.742 76.514C178.113 76.7443 178.527 76.8606 178.982 76.8606ZM177.646 69.902C177.738 69.6174 177.867 69.4071 178.032 69.2709C178.198 69.1349 178.371 69.0666 178.553 69.0666C178.661 69.0666 178.766 69.0866 178.867 69.1266C178.968 69.1669 179.089 69.2269 179.23 69.3069C179.347 69.3751 179.445 69.4251 179.526 69.4591C179.607 69.4931 179.688 69.5114 179.768 69.5114C179.881 69.5114 179.972 69.4771 180.041 69.4091C180.109 69.3411 180.181 69.2189 180.258 69.0426L180.669 69.1809C180.576 69.4651 180.448 69.6754 180.282 69.8117C180.117 69.948 179.946 70.016 179.768 70.016C179.655 70.016 179.548 69.994 179.446 69.952C179.343 69.91 179.22 69.8497 179.079 69.7697C178.962 69.7057 178.865 69.6554 178.786 69.6214C178.708 69.5874 178.629 69.5714 178.553 69.5714C178.444 69.5714 178.353 69.6054 178.28 69.6734C178.208 69.7417 178.135 69.8637 178.063 70.04L177.646 69.902ZM191.687 77.4494C191.106 77.4494 190.572 77.3071 190.082 77.0229C189.592 76.7383 189.203 76.3497 188.917 75.8569C188.63 75.3643 188.487 74.8214 188.487 74.2286C188.487 73.6354 188.63 73.0909 188.917 72.596C189.203 72.1011 189.592 71.7106 190.082 71.4243C190.572 71.1377 191.108 70.9954 191.693 70.9954C192.273 70.9954 192.809 71.1377 193.299 71.4243C193.789 71.7106 194.176 72.1011 194.462 72.596C194.749 73.0909 194.892 73.6354 194.892 74.2286C194.892 74.8174 194.749 75.3583 194.462 75.8509C194.176 76.3437 193.789 76.7323 193.299 77.0189C192.809 77.3051 192.271 77.4494 191.687 77.4494ZM191.699 76.8786C192.17 76.8786 192.606 76.7623 193.003 76.53C193.4 76.2977 193.715 75.9791 193.946 75.5746C194.178 75.17 194.293 74.7211 194.293 74.2286C194.293 73.7397 194.178 73.2911 193.946 72.8843C193.715 72.4777 193.4 72.1574 193.003 71.9229C192.606 71.6886 192.17 71.5726 191.699 71.5726C191.223 71.5726 190.785 71.6886 190.386 71.9229C189.987 72.1574 189.67 72.4777 189.437 72.8843C189.203 73.2911 189.086 73.7397 189.086 74.2286C189.086 74.7211 189.203 75.17 189.437 75.5746C189.67 75.9791 189.987 76.2977 190.386 76.53C190.785 76.7623 191.223 76.8786 191.699 76.8786ZM206.792 71.0014C207.373 71.0014 207.881 71.1397 208.314 71.4163C208.747 71.6926 209.08 72.0731 209.312 72.56C209.544 73.0466 209.659 73.5994 209.659 74.2166C209.659 74.3166 209.655 74.3929 209.647 74.4449H204.494C204.526 74.9094 204.657 75.326 204.885 75.6966C205.113 76.0671 205.411 76.3577 205.782 76.566C206.153 76.7743 206.56 76.8786 207.004 76.8786C207.395 76.8786 207.758 76.8083 208.09 76.6703C208.423 76.532 208.715 76.3377 208.969 76.0854L209.302 76.518C209 76.8143 208.653 77.0429 208.262 77.2049C207.871 77.3671 207.441 77.4494 206.973 77.4494C206.405 77.4494 205.887 77.3071 205.417 77.0229C204.947 76.7383 204.576 76.3497 204.306 75.8569C204.036 75.3643 203.901 74.8214 203.901 74.2286C203.901 73.6314 204.026 73.0869 204.274 72.596C204.522 72.1051 204.867 71.7166 205.308 71.4303C205.75 71.1437 206.244 71.0014 206.792 71.0014ZM206.81 71.5663C206.399 71.5663 206.026 71.6646 205.691 71.8629C205.357 72.0611 205.087 72.3377 204.879 72.69C204.671 73.0426 204.544 73.4431 204.5 73.892H209.06C209.02 73.4311 208.905 73.0246 208.713 72.674C208.522 72.3237 208.264 72.0511 207.939 71.8569C207.614 71.6626 207.238 71.5663 206.81 71.5663ZM222.756 70.9834C223.2 70.9834 223.593 71.0817 223.934 71.28C224.274 71.4783 224.538 71.7629 224.726 72.1311C224.913 72.4997 225.006 72.9366 225.006 73.4411V77.2991H224.407V73.5074C224.407 73.1189 224.339 72.7783 224.202 72.4857C224.064 72.1934 223.869 71.9651 223.613 71.8029C223.357 71.6406 223.055 71.5603 222.708 71.5603C222.365 71.5603 222.055 71.6486 221.774 71.8249C221.494 72.0011 221.273 72.2474 221.109 72.564C220.946 72.8803 220.863 73.2389 220.863 73.6397V77.2991H220.265V73.5074C220.265 73.1189 220.196 72.7783 220.059 72.4857C219.922 72.1934 219.726 71.9651 219.47 71.8029C219.214 71.6406 218.91 71.5603 218.559 71.5603C218.22 71.5603 217.912 71.6486 217.632 71.8249C217.352 72.0011 217.13 72.2474 216.967 72.564C216.803 72.8803 216.72 73.2389 216.72 73.6397V77.2991H216.122V71.1277H216.696V72.0171C216.906 71.6926 217.18 71.4383 217.519 71.256C217.857 71.0737 218.222 70.9834 218.613 70.9834C219.101 70.9834 219.525 71.1017 219.884 71.338C220.242 71.5746 220.505 71.9069 220.67 72.3357C220.859 71.9149 221.142 71.5846 221.517 71.344C221.891 71.1037 222.305 70.9834 222.756 70.9834ZM237.456 77.4494C236.868 77.4494 236.328 77.3051 235.836 77.0189C235.344 76.7323 234.955 76.3437 234.666 75.8509C234.378 75.3583 234.233 74.8174 234.233 74.2286C234.233 73.6354 234.378 73.0929 234.666 72.6C234.955 72.1071 235.344 71.7166 235.836 71.4283C236.328 71.1397 236.866 70.9954 237.45 70.9954C237.902 70.9954 238.323 71.0757 238.712 71.238C239.102 71.4003 239.444 71.6306 239.743 71.9269L239.41 72.3537C239.148 72.0971 238.853 71.8989 238.527 71.7609C238.2 71.6226 237.85 71.5543 237.475 71.5543C236.999 71.5543 236.559 71.6726 236.154 71.9089C235.749 72.1454 235.426 72.4677 235.189 72.8763C234.951 73.2851 234.832 73.7357 234.832 74.2286C234.832 74.7171 234.953 75.164 235.193 75.5706C235.432 75.9771 235.753 76.2977 236.156 76.532C236.559 76.7663 236.999 76.8846 237.475 76.8846C237.854 76.8846 238.208 76.8163 238.537 76.6803C238.865 76.544 239.158 76.3517 239.416 76.1034L239.749 76.524C239.45 76.8163 239.106 77.0429 238.712 77.2049C238.319 77.3671 237.9 77.4494 237.456 77.4494ZM250.802 71.1277H251.407V77.2991H250.814V75.9951L250.82 75.9111C250.566 76.3757 250.224 76.7463 249.792 77.0229C249.361 77.2991 248.873 77.4374 248.329 77.4374C247.776 77.4374 247.27 77.2951 246.811 77.0106C246.351 76.7263 245.988 76.3377 245.722 75.8469C245.456 75.3563 245.323 74.8154 245.323 74.2226C245.323 73.6294 245.456 73.0869 245.722 72.594C245.988 72.1011 246.351 71.7106 246.811 71.4243C247.27 71.1377 247.776 70.9954 248.329 70.9954C248.865 70.9954 249.349 71.1297 249.778 71.4003C250.208 71.6706 250.548 72.0371 250.802 72.4977V71.1277ZM248.359 76.8606C248.818 76.8606 249.238 76.7443 249.617 76.514C249.996 76.2837 250.294 75.9691 250.51 75.5686C250.725 75.168 250.832 74.7191 250.832 74.2226C250.832 73.7297 250.723 73.2811 250.506 72.8783C250.288 72.4757 249.992 72.1594 249.615 71.9269C249.238 71.6946 248.818 71.5786 248.359 71.5786C247.903 71.5786 247.49 71.6946 247.119 71.9269C246.748 72.1594 246.456 72.4757 246.242 72.8783C246.029 73.2811 245.922 73.7297 245.922 74.2226C245.922 74.7191 246.029 75.168 246.242 75.5686C246.456 75.9691 246.748 76.2837 247.119 76.514C247.49 76.7443 247.903 76.8606 248.359 76.8606ZM263.948 68.3154V77.2991H263.355V75.9951L263.361 75.9111C263.108 76.3757 262.765 76.7463 262.333 77.0229C261.902 77.2991 261.414 77.4374 260.87 77.4374C260.317 77.4374 259.811 77.2951 259.352 77.0106C258.892 76.7263 258.529 76.3377 258.263 75.8469C257.997 75.3563 257.864 74.8154 257.864 74.2226C257.864 73.6294 257.997 73.0869 258.263 72.594C258.529 72.1011 258.892 71.7106 259.352 71.4243C259.811 71.1377 260.317 70.9954 260.87 70.9954C261.406 70.9954 261.89 71.1297 262.319 71.4003C262.749 71.6706 263.089 72.0371 263.343 72.4977V68.3154H263.948ZM260.9 76.8606C261.36 76.8606 261.779 76.7443 262.158 76.514C262.537 76.2837 262.835 75.9691 263.051 75.5686C263.267 75.168 263.374 74.7191 263.374 74.2226C263.374 73.7297 263.265 73.2811 263.047 72.8783C262.829 72.4757 262.533 72.1594 262.156 71.9269C261.779 71.6946 261.36 71.5786 260.9 71.5786C260.445 71.5786 260.031 71.6946 259.66 71.9269C259.289 72.1594 258.997 72.4757 258.783 72.8783C258.57 73.2811 258.463 73.7297 258.463 74.2226C258.463 74.7191 258.57 75.168 258.783 75.5686C258.997 75.9691 259.289 76.2837 259.66 76.514C260.031 76.7443 260.445 76.8606 260.9 76.8606ZM275.885 71.1277H276.489V77.2991H275.897V75.9951L275.903 75.9111C275.649 76.3757 275.306 76.7463 274.874 77.0229C274.443 77.2991 273.955 77.4374 273.411 77.4374C272.859 77.4374 272.352 77.2951 271.893 77.0106C271.433 76.7263 271.07 76.3377 270.804 75.8469C270.538 75.3563 270.405 74.8154 270.405 74.2226C270.405 73.6294 270.538 73.0869 270.804 72.594C271.07 72.1011 271.433 71.7106 271.893 71.4243C272.352 71.1377 272.859 70.9954 273.411 70.9954C273.947 70.9954 274.431 71.1297 274.86 71.4003C275.29 71.6706 275.63 72.0371 275.885 72.4977V71.1277ZM273.441 76.8606C273.901 76.8606 274.32 76.7443 274.699 76.514C275.078 76.2837 275.376 75.9691 275.592 75.5686C275.808 75.168 275.915 74.7191 275.915 74.2226C275.915 73.7297 275.806 73.2811 275.588 72.8783C275.37 72.4757 275.074 72.1594 274.697 71.9269C274.32 71.6946 273.901 71.5786 273.441 71.5786C272.986 71.5786 272.572 71.6946 272.201 71.9269C271.83 72.1594 271.538 72.4757 271.325 72.8783C271.111 73.2811 271.004 73.7297 271.004 74.2226C271.004 74.7191 271.111 75.168 271.325 75.5686C271.538 75.9691 271.83 76.2837 272.201 76.514C272.572 76.7443 272.986 76.8606 273.441 76.8606ZM288.849 71.0014C289.429 71.0014 289.938 71.1397 290.371 71.4163C290.804 71.6926 291.137 72.0731 291.369 72.56C291.601 73.0466 291.715 73.5994 291.715 74.2166C291.715 74.3166 291.711 74.3929 291.703 74.4449H286.551C286.583 74.9094 286.714 75.326 286.942 75.6966C287.17 76.0671 287.468 76.3577 287.839 76.566C288.21 76.7743 288.617 76.8786 289.061 76.8786C289.452 76.8786 289.815 76.8083 290.147 76.6703C290.48 76.532 290.772 76.3377 291.026 76.0854L291.359 76.518C291.056 76.8143 290.71 77.0429 290.319 77.2049C289.928 77.3671 289.498 77.4494 289.03 77.4494C288.462 77.4494 287.944 77.3071 287.474 77.0229C287.004 76.7383 286.633 76.3497 286.363 75.8569C286.093 75.3643 285.958 74.8214 285.958 74.2286C285.958 73.6314 286.083 73.0869 286.331 72.596C286.579 72.1051 286.924 71.7166 287.365 71.4303C287.807 71.1437 288.301 71.0014 288.849 71.0014ZM288.867 71.5663C288.456 71.5663 288.083 71.6646 287.748 71.8629C287.414 72.0611 287.143 72.3377 286.936 72.69C286.728 73.0426 286.601 73.4431 286.557 73.892H291.117C291.076 73.4311 290.961 73.0246 290.77 72.674C290.579 72.3237 290.321 72.0511 289.996 71.8569C289.671 71.6626 289.295 71.5663 288.867 71.5663ZM300.042 77.4494C299.554 77.4494 299.08 77.3611 298.62 77.1849C298.161 77.0086 297.786 76.7883 297.495 76.524L297.858 76.0794C298.116 76.2997 298.445 76.488 298.842 76.6443C299.239 76.8003 299.636 76.8786 300.035 76.8786C300.354 76.8786 300.638 76.8263 300.886 76.7243C301.134 76.622 301.328 76.48 301.467 76.2977C301.606 76.1154 301.674 75.9051 301.674 75.6646C301.674 75.4203 301.606 75.218 301.469 75.0577C301.332 74.8974 301.134 74.7631 300.874 74.6571C300.614 74.5509 300.263 74.4469 299.824 74.3426C299.199 74.1943 298.709 73.98 298.354 73.7017C297.999 73.4231 297.822 73.0546 297.822 72.594C297.822 72.2974 297.907 72.0271 298.076 71.7849C298.245 71.5423 298.491 71.35 298.814 71.208C299.136 71.0657 299.517 70.9954 299.957 70.9954C300.36 70.9954 300.755 71.0577 301.14 71.1837C301.525 71.31 301.854 71.4903 302.128 71.7226L301.771 72.1614C301.533 71.9811 301.257 71.8369 300.941 71.7286C300.624 71.6206 300.291 71.5663 299.945 71.5663C299.634 71.5663 299.366 71.6106 299.14 71.6986C298.914 71.7869 298.743 71.9069 298.626 72.0611C298.509 72.2154 298.451 72.3937 298.451 72.594C298.451 72.7903 298.503 72.9606 298.606 73.1049C298.709 73.2489 298.878 73.3791 299.114 73.4974C299.35 73.6154 299.67 73.7257 300.078 73.826C300.537 73.942 300.925 74.0663 301.237 74.1983C301.549 74.3306 301.803 74.5129 302.001 74.7471C302.199 74.9817 302.297 75.282 302.297 75.6466C302.297 75.9871 302.203 76.2937 302.011 76.568C301.82 76.8426 301.551 77.0589 301.209 77.2151C300.866 77.3711 300.477 77.4494 300.042 77.4494ZM311.658 70.9954C312.21 70.9954 312.716 71.1377 313.175 71.4243C313.635 71.7106 313.998 72.1011 314.264 72.594C314.53 73.0869 314.663 73.6294 314.663 74.2226C314.663 74.8154 314.53 75.3563 314.264 75.8469C313.998 76.3377 313.635 76.7263 313.173 77.0106C312.712 77.2951 312.204 77.4374 311.651 77.4374C311.115 77.4374 310.633 77.3011 310.204 77.0309C309.775 76.7603 309.432 76.3957 309.178 75.9351V79.4323H308.579V71.1277H309.172V72.516C309.426 72.0511 309.769 71.6806 310.198 71.4063C310.627 71.1317 311.113 70.9954 311.658 70.9954ZM311.621 76.8606C312.077 76.8606 312.492 76.7443 312.865 76.514C313.238 76.2837 313.53 75.9691 313.744 75.5686C313.958 75.168 314.064 74.7191 314.064 74.2226C314.064 73.7297 313.958 73.2811 313.744 72.8783C313.53 72.4757 313.238 72.1594 312.865 71.9269C312.492 71.6946 312.077 71.5786 311.621 71.5786C311.162 71.5786 310.744 71.6946 310.367 71.9269C309.99 72.1594 309.692 72.4757 309.474 72.8783C309.256 73.2811 309.147 73.7297 309.147 74.2226C309.147 74.7191 309.256 75.168 309.474 75.5686C309.692 75.9691 309.99 76.2837 310.367 76.514C310.744 76.7443 311.162 76.8606 311.621 76.8606ZM326.14 71.1277H326.745V77.2991H326.152V75.9951L326.158 75.9111C325.904 76.3757 325.561 76.7463 325.13 77.0229C324.698 77.2991 324.211 77.4374 323.667 77.4374C323.114 77.4374 322.608 77.2951 322.149 77.0106C321.689 76.7263 321.326 76.3377 321.06 75.8469C320.794 75.3563 320.661 74.8154 320.661 74.2226C320.661 73.6294 320.794 73.0869 321.06 72.594C321.326 72.1011 321.689 71.7106 322.149 71.4243C322.608 71.1377 323.114 70.9954 323.667 70.9954C324.203 70.9954 324.686 71.1297 325.116 71.4003C325.545 71.6706 325.886 72.0371 326.14 72.4977V71.1277ZM323.697 76.8606C324.156 76.8606 324.576 76.7443 324.955 76.514C325.334 76.2837 325.632 75.9691 325.848 75.5686C326.063 75.168 326.17 74.7191 326.17 74.2226C326.17 73.7297 326.061 73.2811 325.844 72.8783C325.626 72.4757 325.33 72.1594 324.953 71.9269C324.576 71.6946 324.156 71.5786 323.697 71.5786C323.241 71.5786 322.828 71.6946 322.457 71.9269C322.086 72.1594 321.794 72.4757 321.58 72.8783C321.366 73.2811 321.259 73.7297 321.259 74.2226C321.259 74.7191 321.366 75.168 321.58 75.5686C321.794 75.9691 322.086 76.2837 322.457 76.514C322.828 76.7443 323.241 76.8606 323.697 76.8606ZM338.717 76.524C338.455 76.7763 338.159 76.9806 337.826 77.1389C337.494 77.2971 337.137 77.3954 336.758 77.4314C336.855 77.5917 336.937 77.7557 337.004 77.926C337.07 78.0963 337.102 78.2486 337.102 78.3809C337.102 78.6131 337.012 78.8034 336.829 78.9517C336.645 79.1 336.34 79.198 335.917 79.246L335.82 78.8494C336.038 78.8214 336.202 78.7814 336.31 78.7294C336.419 78.6771 336.492 78.6192 336.526 78.5571C336.56 78.4949 336.576 78.4189 336.576 78.3266C336.576 78.1143 336.471 77.82 336.262 77.4434C335.697 77.4194 335.183 77.2611 334.718 76.9686C334.252 76.6763 333.883 76.2897 333.611 75.8089C333.339 75.3283 333.202 74.8014 333.202 74.2286C333.202 73.6354 333.347 73.0929 333.635 72.6C333.924 72.1071 334.313 71.7166 334.804 71.4283C335.296 71.1397 335.835 70.9954 336.419 70.9954C336.871 70.9954 337.292 71.0757 337.681 71.238C338.07 71.4003 338.413 71.6306 338.711 71.9269L338.379 72.3537C338.117 72.0971 337.822 71.8989 337.496 71.7609C337.169 71.6226 336.818 71.5543 336.443 71.5543C335.968 71.5543 335.528 71.6726 335.123 71.9089C334.718 72.1454 334.395 72.4677 334.157 72.8763C333.92 73.2851 333.801 73.7357 333.801 74.2286C333.801 74.7171 333.922 75.164 334.161 75.5706C334.401 75.9771 334.722 76.2977 335.125 76.532C335.528 76.7663 335.968 76.8846 336.443 76.8846C336.822 76.8846 337.177 76.8163 337.506 76.6803C337.834 76.544 338.127 76.3517 338.385 76.1034L338.717 76.524ZM347.491 77.4494C346.91 77.4494 346.376 77.3071 345.886 77.0229C345.396 76.7383 345.008 76.3497 344.721 75.8569C344.435 75.3643 344.292 74.8214 344.292 74.2286C344.292 73.6354 344.435 73.0909 344.721 72.596C345.008 72.1011 345.396 71.7106 345.886 71.4243C346.376 71.1377 346.912 70.9954 347.497 70.9954C348.078 70.9954 348.614 71.1377 349.104 71.4243C349.594 71.7106 349.981 72.1011 350.267 72.596C350.553 73.0909 350.696 73.6354 350.696 74.2286C350.696 74.8174 350.553 75.3583 350.267 75.8509C349.981 76.3437 349.594 76.7323 349.104 77.0189C348.614 77.3051 348.076 77.4494 347.491 77.4494ZM347.503 76.8786C347.975 76.8786 348.41 76.7623 348.807 76.53C349.204 76.2977 349.519 75.9791 349.751 75.5746C349.983 75.17 350.098 74.7211 350.098 74.2286C350.098 73.7397 349.983 73.2911 349.751 72.8843C349.519 72.4777 349.204 72.1574 348.807 71.9229C348.41 71.6886 347.975 71.5726 347.503 71.5726C347.027 71.5726 346.59 71.6886 346.191 71.9229C345.792 72.1574 345.475 72.4777 345.241 72.8843C345.008 73.2911 344.89 73.7397 344.89 74.2286C344.89 74.7211 345.008 75.17 345.241 75.5746C345.475 75.9791 345.792 76.2977 346.191 76.53C346.59 76.7623 347.027 76.8786 347.503 76.8786Z" fill="#3A3A3A"/>
<path d="M161.823 44.0063C162.439 45.7546 163.473 47.0986 164.913 48.0491C166.354 48.9997 168.015 49.4806 169.906 49.4806C171.336 49.4806 172.611 49.2511 173.722 48.8029C174.833 48.3549 175.867 47.7214 176.834 46.8909L181.915 54.168C180.265 55.6326 178.374 56.758 176.229 57.5557C174.085 58.3531 171.732 58.7574 169.18 58.7574C165.683 58.7574 162.538 57.938 159.745 56.2991C156.952 54.6597 154.774 52.4529 153.201 49.6774C151.629 46.9017 150.837 43.886 150.837 40.6297C150.837 37.308 151.585 34.2486 153.081 31.4511C154.576 28.654 156.655 26.436 159.305 24.7966C161.955 23.1577 164.946 22.338 168.29 22.338C171.963 22.338 175.119 23.092 177.758 24.6109C180.397 26.1297 182.399 28.2497 183.763 30.9594C185.126 33.6694 185.808 36.7834 185.808 40.302C185.808 41.504 185.709 42.7386 185.511 44.0063H161.823ZM168.751 31.2217C166.97 31.2217 165.463 31.7026 164.221 32.664C162.978 33.6257 162.109 35.0134 161.625 36.8271H175.614C175.152 34.9914 174.338 33.5929 173.161 32.6423C171.985 31.6914 170.511 31.2217 168.751 31.2217ZM210.518 22.3709C211.948 22.3709 213.367 22.6114 214.774 23.092C216.182 23.5731 217.524 24.2831 218.799 25.2229L213.883 34.2374C212.278 33.1014 210.683 32.5329 209.1 32.5329C207.934 32.5329 206.856 32.8389 205.855 33.4617C204.855 34.0846 204.041 35.0026 203.425 36.2154C202.809 37.4283 202.501 38.8597 202.501 40.4986V57.8069H191.35V23.0594H199.928L201.578 27.3209C202.567 25.7474 203.821 24.5234 205.339 23.6603C206.856 22.7971 208.583 22.3709 210.518 22.3709ZM232.82 57.8069H221.735V8.636H232.82V57.8069ZM249.349 44.0063C249.965 45.7546 250.998 47.0986 252.439 48.0491C253.88 48.9997 255.54 49.4806 257.432 49.4806C258.861 49.4806 260.137 49.2511 261.248 48.8029C262.358 48.3549 263.392 47.7214 264.36 46.8909L269.441 54.168C267.791 55.6326 265.899 56.758 263.755 57.5557C261.611 58.3531 259.257 58.7574 256.706 58.7574C253.209 58.7574 250.064 57.938 247.27 56.2991C244.477 54.6597 242.3 52.4529 240.727 49.6774C239.155 46.9017 238.363 43.886 238.363 40.6297C238.363 37.308 239.111 34.2486 240.606 31.4511C242.102 28.654 244.18 26.436 246.83 24.7966C249.481 23.1577 252.472 22.338 255.815 22.338C259.488 22.338 262.644 23.092 265.283 24.6109C267.923 26.1297 269.924 28.2497 271.288 30.9594C272.651 33.6694 273.334 36.7834 273.334 40.302C273.334 41.504 273.234 42.7386 273.036 44.0063H249.349ZM256.277 31.2217C254.496 31.2217 252.989 31.7026 251.746 32.664C250.504 33.6257 249.635 35.0134 249.151 36.8271H263.139C262.677 34.9914 261.864 33.5929 260.687 32.6423C259.51 31.6914 258.037 31.2217 256.277 31.2217ZM298.902 57.8069H288.015L274.059 23.0594H286.332L293.458 45.2846L300.617 23.0594H312.923L298.902 57.8069ZM342.384 23.0594H350.632V57.8069H342.054L340.833 54.6597C338.326 57.3043 335.115 58.6266 331.2 58.6266C327.989 58.6266 325.042 57.8069 322.348 56.1789C319.653 54.5506 317.509 52.3434 315.925 49.5571C314.341 46.7709 313.55 43.7331 313.55 40.4331C313.55 37.1551 314.341 34.1283 315.925 31.3529C317.509 28.5774 319.653 26.3811 322.358 24.764C325.064 23.1466 328.011 22.338 331.2 22.338C335.137 22.338 338.392 23.704 340.965 26.436L342.384 23.0594ZM332.256 48.3006C333.708 48.3006 335.027 47.9617 336.204 47.2951C337.381 46.6286 338.304 45.7109 338.986 44.5306C339.668 43.3506 340.009 42.0174 340.009 40.5314C340.009 39.0454 339.679 37.7014 339.008 36.4994C338.337 35.2974 337.413 34.3577 336.237 33.6803C335.06 33.0029 333.751 32.664 332.322 32.664C330.87 32.664 329.561 33.0029 328.396 33.6803C327.23 34.3577 326.317 35.2974 325.647 36.4994C324.976 37.7014 324.635 39.0454 324.635 40.5314C324.635 42.0174 324.965 43.3506 325.625 44.5306C326.285 45.7109 327.197 46.6286 328.352 47.2951C329.507 47.9617 330.804 48.3006 332.256 48.3006Z" fill="#3A3A3A"/>
<path fill-rule="evenodd" clip-rule="evenodd" d="M128.775 22.2834C135.66 22.2834 142.213 25.8186 144.729 31.6991L136.621 36.758C136.255 36.122 135.826 35.4991 135.328 34.9226C134.988 34.5186 134.612 34.1471 134.204 33.8134C132.824 32.6634 131.045 31.8829 128.775 31.8829C128.062 31.8829 127.328 32.008 126.603 32.2403C124.892 32.7314 123.401 33.7563 122.319 35.1254C121.09 36.558 120.282 38.3617 120.282 40.322C120.282 42.5177 121.126 44.5174 122.51 46.0186C123.354 47.0126 124.421 47.8077 125.632 48.3246L119.44 55.8106C114.153 52.6557 110.614 46.9034 110.614 40.3291C110.614 30.3629 118.745 22.2834 128.775 22.2834Z" fill="#3A3A3A"/>
<path fill-rule="evenodd" clip-rule="evenodd" d="M137.315 56.7786L130.084 48.9086C133.238 48.4623 135.833 46.2494 136.863 43.2894L145.174 48.6834C143.461 52.1466 140.702 54.9866 137.315 56.7786Z" fill="#3A3A3A"/>
</svg>
