<svg width="227" height="65" viewBox="0 0 227 65" fill="none" xmlns="http://www.w3.org/2000/svg">
<g clip-path="url(#clip0_670_358)">
<path fill-rule="evenodd" clip-rule="evenodd" d="M4.53901 2.37436H57.5284C59.6261 2.37436 61.3428 4.08813 61.3428 6.1828V58.9136C61.3428 61.0083 59.6261 62.722 57.5284 62.722H4.53901C2.44106 62.722 0.724609 61.0083 0.724609 58.9136V6.1828C0.724609 4.08813 2.44106 2.37436 4.53901 2.37436Z" stroke="#2C2C2C" stroke-width="3.51987" stroke-miterlimit="22.9256"/>
<path d="M31.8631 16.2888C38.3348 16.2888 44.493 19.6164 46.8633 25.149L39.258 29.9046C38.9148 29.3094 38.5141 28.7266 38.0485 28.1866C37.7275 27.8045 37.3722 27.4532 36.9874 27.1376C35.6847 26.0495 34.0053 25.311 31.8631 25.311C31.1893 25.311 30.4959 25.4295 29.8123 25.6493C28.1965 26.114 26.7901 27.0832 25.7682 28.3783C24.609 29.7332 23.846 31.4396 23.846 33.2947C23.846 35.3719 24.643 37.2637 25.9485 38.6836C26.7404 39.6177 27.7389 40.3659 28.8724 40.8551L23.0675 47.8884C18.1013 44.9125 14.7787 39.4937 14.7787 33.3015C14.7787 23.9058 22.4276 16.2888 31.8631 16.2888Z" fill="#2C2C2C" stroke="#2C2C2C" stroke-width="0.0377953"/>
<path d="M47.2824 41.1931C45.6726 44.4467 43.0847 47.116 39.9092 48.803L33.1338 41.4127C36.0878 40.9799 38.5165 38.9022 39.4895 36.1246L47.2824 41.1931Z" fill="#2C2C2C" stroke="#2C2C2C" stroke-width="0.0377953"/>
<path d="M104.574 38.7145C104.974 39.8509 105.644 40.7245 106.579 41.3424C107.513 41.9602 108.59 42.2728 109.817 42.2728C110.744 42.2728 111.571 42.1237 112.292 41.8323C113.012 41.5411 113.683 41.1293 114.31 40.5895L117.605 45.3196C116.535 46.2716 115.309 47.0031 113.918 47.5216C112.527 48.04 111.001 48.3027 109.346 48.3027C107.078 48.3027 105.038 47.7701 103.227 46.7049C101.415 45.6392 100.003 44.2048 98.9826 42.4007C97.9628 40.5965 97.4492 38.6363 97.4492 36.5197C97.4492 34.3606 97.9341 32.372 98.9043 30.5537C99.8742 28.7355 101.222 27.2938 102.941 26.2282C104.66 25.1629 106.6 24.6301 108.768 24.6301C111.151 24.6301 113.198 25.1202 114.909 26.1075C116.621 27.0947 117.919 28.4727 118.804 30.234C119.688 31.9955 120.13 34.0196 120.13 36.3067C120.13 37.088 120.066 37.8905 119.938 38.7145H104.574ZM109.068 30.4045C107.913 30.4045 106.935 30.7171 106.129 31.342C105.324 31.9671 104.76 32.8691 104.446 34.0481H113.519C113.219 32.8548 112.691 31.9458 111.928 31.3279C111.165 30.7098 110.209 30.4045 109.068 30.4045ZM136.157 24.6515C137.084 24.6515 138.004 24.8078 138.917 25.1202C139.83 25.433 140.7 25.8945 141.527 26.5053L138.339 32.3647C137.298 31.6263 136.264 31.2568 135.237 31.2568C134.481 31.2568 133.782 31.4557 133.133 31.8605C132.484 32.2654 131.956 32.8621 131.556 33.6504C131.157 34.4388 130.957 35.3692 130.957 36.4345V47.6849H123.725V25.099H129.288L130.358 27.869C131 26.8462 131.813 26.0506 132.797 25.4896C133.782 24.9286 134.901 24.6515 136.157 24.6515ZM150.621 47.6849H143.432V15.7238H150.621V47.6849ZM161.341 38.7145C161.741 39.8509 162.411 40.7245 163.345 41.3424C164.28 41.9602 165.357 42.2728 166.583 42.2728C167.511 42.2728 168.338 42.1237 169.058 41.8323C169.779 41.5411 170.449 41.1293 171.077 40.5895L174.372 45.3196C173.302 46.2716 172.075 47.0031 170.684 47.5216C169.294 48.04 167.767 48.3027 166.113 48.3027C163.845 48.3027 161.805 47.7701 159.993 46.7049C158.182 45.6392 156.769 44.2048 155.749 42.4007C154.729 40.5965 154.216 38.6363 154.216 36.5197C154.216 34.3606 154.701 32.372 155.671 30.5537C156.641 28.7355 157.989 27.2938 159.708 26.2282C161.427 25.1629 163.367 24.6301 165.535 24.6301C167.917 24.6301 169.964 25.1202 171.676 26.1075C173.388 27.0947 174.686 28.4727 175.57 30.234C176.454 31.9955 176.897 34.0196 176.897 36.3067C176.897 37.088 176.833 37.8905 176.704 38.7145H161.341ZM165.835 30.4045C164.679 30.4045 163.702 30.7171 162.896 31.342C162.09 31.9671 161.526 32.8691 161.213 34.0481H170.285C169.985 32.8548 169.458 31.9458 168.695 31.3279C167.932 30.7098 166.976 30.4045 165.835 30.4045ZM193.48 47.6849H186.419L177.368 25.099H185.327L189.949 39.5454L194.592 25.099H202.574L193.48 47.6849ZM221.681 25.099H227.03V47.6849H221.467L220.675 45.6392C219.049 47.3582 216.966 48.2177 214.427 48.2177C212.345 48.2177 210.433 47.6849 208.686 46.6267C206.938 45.5683 205.548 44.1336 204.521 42.3226C203.493 40.5115 202.98 38.537 202.98 36.392C202.98 34.2613 203.493 32.2938 204.521 30.4898C205.548 28.6857 206.938 27.2582 208.693 26.207C210.448 25.1557 212.359 24.6301 214.427 24.6301C216.981 24.6301 219.092 25.518 220.761 27.2938L221.681 25.099ZM215.112 41.5058C216.054 41.5058 216.91 41.2855 217.673 40.8523C218.436 40.419 219.035 39.8225 219.477 39.0553C219.919 38.2883 220.141 37.4217 220.141 36.4558C220.141 35.4899 219.927 34.6163 219.491 33.835C219.056 33.0537 218.457 32.4429 217.694 32.0026C216.931 31.5623 216.082 31.342 215.155 31.342C214.214 31.342 213.365 31.5623 212.609 32.0026C211.853 32.4429 211.261 33.0537 210.826 33.835C210.391 34.6163 210.169 35.4899 210.169 36.4558C210.169 37.4217 210.383 38.2883 210.811 39.0553C211.239 39.8225 211.831 40.419 212.58 40.8523C213.329 41.2855 214.171 41.5058 215.112 41.5058Z" fill="#2C2C2C"/>
<path fill-rule="evenodd" clip-rule="evenodd" d="M83.1404 24.5946C87.6055 24.5946 91.8557 26.8925 93.4875 30.7149L88.2288 34.0031C87.9914 33.5897 87.7135 33.1849 87.3905 32.8101C87.17 32.5475 86.9258 32.3061 86.6613 32.0891C85.7663 31.3416 84.6127 30.8343 83.1404 30.8343C82.678 30.8343 82.2017 30.9156 81.7318 31.0666C80.6218 31.3858 79.6551 32.052 78.9529 32.9419C78.1563 33.8731 77.6321 35.0455 77.6321 36.3197C77.6321 37.7469 78.1797 39.0467 79.077 40.0225C79.6246 40.6686 80.3165 41.1854 81.102 41.5214L77.0858 46.3873C73.6566 44.3366 71.3613 40.5976 71.3613 36.3244C71.3613 29.8463 76.6351 24.5946 83.1404 24.5946Z" fill="#2C2C2C"/>
<path fill-rule="evenodd" clip-rule="evenodd" d="M88.678 47.0165L83.9883 41.901C86.0343 41.6109 87.7173 40.1725 88.3849 38.2485L93.7755 41.7546C92.6645 44.0057 90.8747 45.8517 88.678 47.0165Z" fill="#2C2C2C"/>
</g>
<defs>
<clipPath id="clip0_670_358">
<rect width="227" height="65" fill="white"/>
</clipPath>
</defs>
</svg>
