<svg width="227" height="65" viewBox="0 0 227 65" fill="none" xmlns="http://www.w3.org/2000/svg">
<g clip-path="url(#clip0_553_77)">
<path fill-rule="evenodd" clip-rule="evenodd" d="M4.53832 2.37436H57.5277C59.6254 2.37436 61.3421 4.08813 61.3421 6.1828V58.9136C61.3421 61.0083 59.6254 62.722 57.5277 62.722H4.53832C2.44037 62.722 0.723923 61.0083 0.723923 58.9136V6.1828C0.723923 4.08813 2.44037 2.37436 4.53832 2.37436Z" stroke="white" stroke-width="3.51987" stroke-miterlimit="22.9256"/>
<path d="M31.863 16.2888C38.3347 16.2888 44.4928 19.6164 46.8632 25.149L39.2578 29.9046C38.9147 29.3094 38.5139 28.7266 38.0484 28.1866C37.7274 27.8045 37.3721 27.4532 36.9873 27.1376C35.6845 26.0495 34.0052 25.311 31.863 25.311C31.1892 25.311 30.4958 25.4295 29.8122 25.6493C28.1964 26.114 26.79 27.0832 25.768 28.3783C24.6089 29.7332 23.8459 31.4396 23.8459 33.2947C23.8459 35.3719 24.6428 37.2637 25.9484 38.6836C26.7403 39.6177 27.7388 40.3659 28.8723 40.8551L23.0674 47.8884C18.1012 44.9125 14.7785 39.4937 14.7785 33.3015C14.7785 23.9058 22.4274 16.2888 31.863 16.2888Z" fill="white" stroke="white" stroke-width="0.0377953"/>
<path d="M47.282 41.1931C45.6721 44.4467 43.0842 47.1159 39.9087 48.803L33.1333 41.4127C36.0874 40.9799 38.516 38.9022 39.489 36.1246L47.282 41.1931Z" fill="white" stroke="white" stroke-width="0.0377953"/>
<path d="M104.573 38.7145C104.973 39.8509 105.643 40.7245 106.577 41.3424C107.512 41.9602 108.589 42.2728 109.815 42.2728C110.743 42.2728 111.57 42.1237 112.291 41.8323C113.011 41.5411 113.681 41.1293 114.309 40.5895L117.604 45.3196C116.534 46.2716 115.307 47.0031 113.917 47.5216C112.526 48.04 110.999 48.3027 109.345 48.3027C107.077 48.3027 105.037 47.7701 103.225 46.7049C101.414 45.6392 100.001 44.2048 98.9813 42.4007C97.9615 40.5965 97.4479 38.6363 97.4479 36.5197C97.4479 34.3606 97.9328 32.372 98.903 30.5537C99.8728 28.7355 101.221 27.2938 102.94 26.2282C104.659 25.1629 106.599 24.6301 108.767 24.6301C111.149 24.6301 113.196 25.1202 114.908 26.1075C116.62 27.0947 117.918 28.4727 118.802 30.234C119.687 31.9955 120.129 34.0196 120.129 36.3067C120.129 37.088 120.065 37.8905 119.936 38.7145H104.573ZM109.066 30.4045C107.911 30.4045 106.934 30.7171 106.128 31.342C105.322 31.9671 104.759 32.8691 104.445 34.0481H113.517C113.218 32.8548 112.69 31.9458 111.927 31.3279C111.163 30.7098 110.208 30.4045 109.066 30.4045ZM136.155 24.6515C137.083 24.6515 138.003 24.8078 138.916 25.1202C139.828 25.433 140.699 25.8945 141.526 26.5053L138.338 32.3647C137.297 31.6263 136.262 31.2568 135.235 31.2568C134.479 31.2568 133.78 31.4557 133.131 31.8605C132.482 32.2654 131.955 32.8621 131.555 33.6504C131.156 34.4388 130.956 35.3692 130.956 36.4345V47.6849H123.724V25.099H129.287L130.357 27.869C130.999 26.8462 131.812 26.0506 132.796 25.4896C133.78 24.9286 134.9 24.6515 136.155 24.6515ZM150.62 47.6849H143.43V15.7238H150.62V47.6849ZM161.34 38.7145C161.739 39.8509 162.41 40.7245 163.344 41.3424C164.278 41.9602 165.355 42.2728 166.582 42.2728C167.509 42.2728 168.337 42.1237 169.057 41.8323C169.777 41.5411 170.448 41.1293 171.076 40.5895L174.371 45.3196C173.301 46.2716 172.074 47.0031 170.683 47.5216C169.292 48.04 167.766 48.3027 166.111 48.3027C163.843 48.3027 161.803 47.7701 159.992 46.7049C158.18 45.6392 156.768 44.2048 155.748 42.4007C154.728 40.5965 154.214 38.6363 154.214 36.5197C154.214 34.3606 154.7 32.372 155.67 30.5537C156.64 28.7355 157.988 27.2938 159.706 26.2282C161.425 25.1629 163.365 24.6301 165.534 24.6301C167.916 24.6301 169.963 25.1202 171.675 26.1075C173.386 27.0947 174.684 28.4727 175.569 30.234C176.453 31.9955 176.896 34.0196 176.896 36.3067C176.896 37.088 176.831 37.8905 176.703 38.7145H161.34ZM165.833 30.4045C164.678 30.4045 163.701 30.7171 162.895 31.342C162.089 31.9671 161.525 32.8691 161.211 34.0481H170.284C169.984 32.8548 169.456 31.9458 168.693 31.3279C167.93 30.7098 166.974 30.4045 165.833 30.4045ZM193.478 47.6849H186.417L177.366 25.099H185.326L189.948 39.5454L194.591 25.099H202.572L193.478 47.6849ZM221.68 25.099H227.029V47.6849H221.466L220.674 45.6392C219.048 47.3582 216.965 48.2177 214.426 48.2177C212.343 48.2177 210.432 47.6849 208.685 46.6267C206.937 45.5683 205.546 44.1336 204.519 42.3226C203.492 40.5115 202.979 38.537 202.979 36.392C202.979 34.2613 203.492 32.2938 204.519 30.4898C205.546 28.6857 206.937 27.2582 208.692 26.207C210.446 25.1557 212.358 24.6301 214.426 24.6301C216.979 24.6301 219.091 25.518 220.76 27.2938L221.68 25.099ZM215.111 41.5058C216.052 41.5058 216.908 41.2855 217.671 40.8523C218.435 40.419 219.034 39.8225 219.476 39.0553C219.918 38.2883 220.139 37.4217 220.139 36.4558C220.139 35.4899 219.925 34.6163 219.49 33.835C219.055 33.0537 218.456 32.4429 217.693 32.0026C216.93 31.5623 216.081 31.342 215.154 31.342C214.212 31.342 213.363 31.5623 212.607 32.0026C211.851 32.4429 211.259 33.0537 210.824 33.835C210.389 34.6163 210.168 35.4899 210.168 36.4558C210.168 37.4217 210.382 38.2883 210.81 39.0553C211.238 39.8225 211.83 40.419 212.579 40.8523C213.328 41.2855 214.169 41.5058 215.111 41.5058Z" fill="white"/>
<path fill-rule="evenodd" clip-rule="evenodd" d="M83.1391 24.5946C87.6042 24.5946 91.8544 26.8925 93.4862 30.7148L88.2275 34.0031C87.9901 33.5897 87.7122 33.1848 87.3891 32.8101C87.1687 32.5475 86.9245 32.306 86.66 32.0891C85.765 31.3416 84.6114 30.8343 83.1391 30.8343C82.6767 30.8343 82.2004 30.9156 81.7305 31.0666C80.6204 31.3858 79.6538 32.052 78.9516 32.9419C78.1549 33.8731 77.6308 35.0455 77.6308 36.3197C77.6308 37.7469 78.1784 39.0467 79.0757 40.0225C79.6233 40.6686 80.3152 41.1854 81.1007 41.5214L77.0845 46.3873C73.6553 44.3366 71.36 40.5976 71.36 36.3243C71.36 29.8463 76.6338 24.5946 83.1391 24.5946Z" fill="white"/>
<path fill-rule="evenodd" clip-rule="evenodd" d="M88.6776 47.0165L83.9879 41.901C86.0339 41.6109 87.7169 40.1725 88.3845 38.2485L93.7751 41.7546C92.6641 44.0057 90.8743 45.8517 88.6776 47.0165Z" fill="white"/>
</g>
<defs>
<clipPath id="clip0_553_77">
<rect width="227" height="65" fill="white"/>
</clipPath>
</defs>
</svg>
