<svg width="138" height="138" viewBox="0 0 138 138" fill="none" xmlns="http://www.w3.org/2000/svg">
<mask id="mask0_573_549" style="mask-type:alpha" maskUnits="userSpaceOnUse" x="0" y="0" width="138" height="138">
<path d="M0 0H37V37H0V0Z" fill="#DE3838"/>
<path d="M101 0H138V37H101V0Z" fill="#DE3838"/>
<path d="M101 101H138V138H101V101Z" fill="#DE3838"/>
<path d="M0 101H37V138H0V101Z" fill="#DE3838"/>
</mask>
<g mask="url(#mask0_573_549)">
<rect x="7" y="7" width="125" height="125" rx="8" stroke="white" stroke-width="2" stroke-linejoin="round"/>
</g>
<g clip-path="url(#clip0_573_549)">
<path d="M42.75 44.375H51.5V52.75H42.75V44.375Z" fill="white"/>
<path d="M60.25 36V61.125H34V36H60.25ZM55.875 40.1875H38.375V56.9375H55.875V40.1875ZM51.5 86.25H42.75V94.625H51.5V86.25Z" fill="white"/>
<path d="M60.25 77.875V103H34V77.875H60.25ZM38.375 82.0625V98.8125H55.875V82.0625H38.375ZM86.5 44.375H95.25V52.75H86.5V44.375Z" fill="white"/>
<path d="M77.75 36V61.125H104V36H77.75ZM99.625 40.1875V56.9375H82.125V40.1875H99.625ZM69 40.1875V36H73.375V44.375H69V52.75H64.625V40.1875H69ZM69 61.125V52.75H73.375V61.125H69ZM60.25 69.5V65.3125H64.625V61.125H69V69.5H73.375V65.3125H95.25V69.5H77.75V73.6875H64.625V69.5H60.25ZM60.25 69.5V73.6875H42.75V69.5H38.375V73.6875H34V65.3125H47.125V69.5H60.25ZM104 73.6875H99.625V65.3125H104V73.6875ZM99.625 73.6875H95.25V82.0625H104V77.875H99.625V73.6875ZM82.125 73.6875H90.875V77.875H86.5V82.0625H82.125V73.6875ZM90.875 86.25V82.0625H86.5V86.25H82.125V90.4375H73.375V94.625H86.5V86.25H90.875ZM90.875 86.25H104V90.4375H95.25V94.625H90.875V86.25ZM73.375 82.0625V86.25H77.75V77.875H64.625V82.0625H73.375Z" fill="white"/>
<path d="M64.625 86.25H69V98.8125H86.5V103H64.625V86.25ZM104 94.625V103H90.875V98.8125H99.625V94.625H104Z" fill="white"/>
</g>
<defs>
<clipPath id="clip0_573_549">
<rect width="70" height="67" fill="white" transform="translate(34 36)"/>
</clipPath>
</defs>
</svg>
