<svg width="140" height="50" viewBox="0 0 140 50" fill="none" xmlns="http://www.w3.org/2000/svg">
<path d="M16.5346 37.438L16.2393 37.4579C16.2027 37.4627 16.1684 37.4857 16.1501 37.4881L16.0769 37.4977L16.0244 37.5231C15.8827 37.5788 15.7386 37.6162 15.5762 37.656L15.4736 37.7252L15.2356 37.7562C15.183 37.7816 15.0963 37.8302 15.0803 37.8509L14.8105 37.9233L14.6847 37.9583L14.3895 37.9781C14.3528 37.9829 14.3186 38.0059 14.3003 38.0083L14.1928 38.0409L14.1379 38.0481C13.6508 38.1674 13.1087 38.2939 12.6192 38.3949L12.2785 38.4951L12.1711 38.5277L11.9745 38.5906L11.7365 38.6216L11.4412 38.6414L10.8275 38.6469L10.1502 38.7351L10.0746 38.7263L9.29852 38.7716C9.13376 38.793 8.94592 38.7803 8.79947 38.7993L8.57979 38.8279L8.35772 38.8383L8.00035 38.8103C7.94543 38.8175 7.86982 38.8087 7.8332 38.8135C7.73928 38.8071 7.66367 38.7983 7.60875 38.8055C7.33176 38.823 7.12323 38.7943 6.85978 38.7727C6.82317 38.7775 6.76586 38.7663 6.74756 38.7687L6.57326 38.717L6.28196 38.6246C6.20873 38.6341 6.09174 38.5935 5.99782 38.5871L5.53222 38.443L5.27516 38.3275L5.27754 38.3458L4.60265 38.0242C4.60026 38.0059 4.43234 37.8602 4.35196 37.8148C4.30819 37.7646 4.24851 37.7352 4.18882 37.7057C4.01451 37.6539 3.82114 37.4557 3.71929 37.2456C3.61984 37.0537 3.53868 36.8595 3.47107 36.6263L3.41776 36.5029L3.378 36.3405L3.36769 36.1185L3.33746 36.0293L3.33669 35.8805L3.33115 35.695L3.35822 35.617L3.37338 35.4475L3.47852 34.9684L3.49206 34.9294C3.48967 34.9111 3.50321 34.8721 3.50321 34.8721L3.61551 34.4479C3.62667 34.3906 3.63782 34.3333 3.63543 34.3149L3.87265 34.1351L4.14964 34.1176L4.1878 34.4106L4.09465 34.553L4.05165 34.6517L4.02457 34.7297L3.9975 34.8077L3.87643 35.3075L3.89712 35.3234C3.90189 35.3601 3.88835 35.399 3.89074 35.4174L3.88674 35.5296L3.86443 35.6442L3.85566 35.7198L3.8652 35.793L3.88028 36.0517L3.87628 36.1639L3.90013 36.347C3.93751 36.4911 4.01628 36.667 4.09266 36.8246L4.18735 36.9798L4.23589 37.0666C4.25658 37.0825 4.32104 37.1486 4.33934 37.1462L4.36242 37.1804L4.82002 37.549L5.08185 37.7011L5.15985 37.7282L5.49253 37.8524L5.63022 37.9089C5.8069 37.979 5.9239 38.0196 6.03612 38.0236L6.43726 38.1017L6.92993 38.1678L7.17746 38.2101L7.32391 38.191L7.49821 38.2427L7.53483 38.238C8.15326 38.2691 8.78523 38.2613 9.37582 38.2216C9.41244 38.2168 9.46497 38.1914 9.51989 38.1842L9.66635 38.1651L10.0922 38.1469L10.4742 38.0785L10.7671 38.0404L10.955 38.0531L11.0991 38.0157L11.2638 37.9943C11.4286 37.9728 11.591 37.933 11.7374 37.914L12.0486 37.8734L12.1354 37.8249L12.2476 37.8289L12.3368 37.7987L12.5931 37.7653L12.9727 37.6786L13.0985 37.6436C13.1534 37.6364 13.2083 37.6293 13.2792 37.6014L13.4256 37.5824L13.4965 37.5545L13.7504 37.5028L13.8762 37.4678L14.0338 37.3914L14.1595 37.3564L14.505 37.2928L14.6284 37.2395L14.8114 37.2157L14.9006 37.1854L15.0446 37.1481L15.1338 37.1178L15.3328 37.0733L15.726 36.9476L15.7968 36.9198L15.9982 36.8935L16.245 36.7869L16.4782 36.7193L16.5857 36.6867L16.7226 36.5944L17.2097 36.4751L17.4819 36.421C17.6077 36.386 17.7653 36.3096 17.9094 36.2722L18.2317 36.1744L18.266 36.1513L18.2612 36.1147L18.2811 35.9818L18.262 35.8353L18.2708 35.7597L18.27 35.6109L18.3147 35.3817L18.317 35.4L18.3219 35.0084L18.392 34.8317L18.419 34.7537L18.4836 34.3915L18.4788 34.3549L18.5083 34.2952L18.607 33.91C18.6564 33.7174 18.6946 33.5821 18.6899 33.5455L18.7281 33.4102L18.7185 33.337L18.7727 33.181L18.7703 33.1627L18.8022 33.1213L18.8698 32.9263L18.8898 32.7934C18.9009 32.7361 18.9121 32.6788 18.9073 32.6422L18.9981 32.4814L18.9551 32.5801C18.971 32.5594 18.9893 32.557 18.9869 32.5387L19.0228 32.3851L19.0681 32.3047C19.1088 32.1877 19.1971 32.0086 19.2194 31.894L19.2218 31.9123L19.327 31.4332L19.6056 30.857L19.5738 30.8984L19.6144 30.7814L19.7187 30.5816L19.7959 30.4599L19.7641 30.5012L19.8047 30.3842L19.9225 30.1455L19.9767 29.9895L20.0515 29.8494L20.2578 29.4316L20.3326 29.2915L20.3167 29.3122L20.4664 29.0321L20.4504 29.0528L20.5094 28.9334L20.5731 28.8506L20.6885 28.5936L20.6726 28.6142L20.7315 28.4949L21.0102 27.9187L21.1033 27.7762L21.0874 27.7969L21.296 27.3974C21.3143 27.395 21.3279 27.356 21.3438 27.3353L21.4752 27.0575L21.5182 26.9588L21.6997 26.6373C21.6973 26.619 21.7268 26.5593 21.7427 26.5386L21.7403 26.5203L21.8741 26.2609L21.8581 26.2816L21.9147 26.1439L21.9784 26.0611L22.0484 25.8844L22.0508 25.9027C22.0484 25.8844 22.062 25.8454 22.0596 25.8271L22.1981 25.6043L22.1798 25.6067L22.4481 25.2366L22.4505 25.2549L22.6049 25.0114L23.0524 24.3015C23.0659 24.2625 23.0635 24.2442 23.0611 24.2259L23.1885 24.0603L23.2291 23.9434L23.2363 23.9983C23.2315 23.9617 23.2586 23.8837 23.2562 23.8654L23.4354 23.5255L23.433 23.5072L23.7817 22.7543L23.9314 22.4742L23.9872 22.1877L24.1735 21.9027L24.1552 21.9051L24.3343 21.5653L24.3367 21.5836L24.5795 21.161L24.5636 21.1817L24.6042 21.0647L24.8057 20.6103L24.7897 20.6309L24.8439 20.475L25.0406 19.9839L25.1648 19.6512L25.1696 19.6878L25.293 19.2063L25.2795 19.2453L25.3233 18.8673L25.5805 18.1263C25.9221 17.7467 26.1346 17.6631 26.3638 17.7078C26.5174 17.7436 26.6137 17.7683 26.7983 18.0421C26.8174 18.1886 26.8134 18.3008 26.7752 18.4361C26.7799 18.4727 26.7505 18.5324 26.7553 18.569L26.6653 18.8786L26.5028 19.3466C26.451 19.5209 26.3627 19.7 26.3109 19.8743L26.1246 20.1592C26.0975 20.2372 26.0338 20.32 26.0068 20.398L25.8045 20.7036C25.7592 20.7839 25.7209 20.9192 25.6732 20.9813L25.5139 21.1882L25.381 21.5965L25.3101 21.6244L25.2377 21.7827L25.1421 21.9069L25.0418 21.9944L24.2663 23.4731L23.783 24.3366L23.4996 24.8762L23.291 25.2758L23.2026 25.4548L22.998 25.7421L22.9797 25.7445C22.9638 25.7652 22.9502 25.8042 22.9526 25.8225L22.2154 27.1659C22.2177 27.1842 22.2042 27.2232 22.2042 27.2232L21.8865 27.7859L21.6437 28.2085L21.662 28.2061C21.619 28.3048 21.5959 28.2706 21.5529 28.3692L21.2106 29.0282L21.1046 29.3585L20.974 29.7851L20.931 29.8838L20.7631 30.1663L20.5178 30.5706L20.5154 30.5523L20.4111 30.7521C20.1707 31.193 19.9692 31.6474 19.7797 32.1934C19.7526 32.2714 19.7327 32.4043 19.7033 32.464L19.7009 32.4457L19.4611 33.4637L19.403 33.7319L19.4125 33.8051L19.4109 33.9356L19.3957 34.1052L19.2516 34.5708L19.1878 35.51L19.1527 35.8124L19.2076 35.8052L19.2968 35.775L19.5459 35.6867L19.9343 35.5244L20.2177 35.413L20.5146 35.2626L20.9238 35.1163L21.1156 35.0168L21.2621 34.9977C21.4014 34.9237 21.438 34.919 21.5088 34.8911L21.598 34.8609L21.6847 34.8124C21.9156 34.7264 22.1416 34.6039 22.3701 34.4997L22.7219 34.3421L22.827 34.2912L23.2314 34.1082L23.389 34.0318L23.935 33.7932L24.298 33.5783L24.8783 33.3166L25.2803 33.1152L25.7666 32.8471L25.89 32.7938L26.0818 32.6943L26.2188 32.602L26.3628 32.5647C26.4154 32.5392 26.4655 32.4954 26.5157 32.4517L27.5338 31.835L27.7049 31.7196L27.7574 31.6941L28.4285 31.2716L28.52 31.2597L28.5909 31.2318L28.7962 31.0934L29.0247 30.9892L29.2325 30.869L29.4036 30.7536L29.8398 30.5293L30.1956 30.2595L30.5769 30.0423L31.0792 29.7534L31.6086 29.3866L31.6977 29.3564L32.0559 29.1049L32.2613 28.9665L32.7198 28.6275C32.7859 28.563 32.9093 28.5097 32.9937 28.4429L33.1807 28.3068L33.3264 28.1389L33.648 27.8922L33.7913 27.706L34.1471 27.4362L34.4775 27.1139L34.9496 26.7359C35.1295 26.5449 35.3619 26.3285 35.5235 26.1399L35.713 26.0221L35.8634 25.8908C35.9797 25.7826 36.0911 25.6377 36.2074 25.5295L36.2893 25.4444L36.4056 25.3361C36.4191 25.2971 36.5011 25.212 36.5146 25.173L36.8633 24.8483L37.1388 24.5332L37.2001 24.4321L37.38 24.2411L37.5894 23.9904L37.6714 23.9053L38.0057 23.4707L38.0623 23.3331C38.0758 23.2941 38.0734 23.2758 38.071 23.2574L38.2159 22.9407L38.2566 22.8237L38.3656 22.6605L38.3632 22.6422L38.3649 22.5117L38.4604 22.3876C38.4532 22.3326 38.4708 22.1814 38.4684 22.1631L38.5758 22.1305C38.6252 21.9379 38.6523 21.8599 38.6841 21.8185L38.677 21.7636L38.689 21.4269C38.6635 21.3744 38.6381 21.3218 38.6309 21.2669L38.6349 21.1547L38.6158 21.0082L38.5435 20.7384L38.4432 20.3977L38.413 20.3086L38.3621 20.2035L38.3064 20.0618C38.2626 20.0117 38.1568 19.9137 38.1313 19.8612L37.9921 19.507L37.9714 19.4911L37.8329 19.2857L37.8075 19.2332L37.7016 19.1352L37.5727 19.0031L37.4693 18.9235L37.3427 18.8096L37.2576 18.7276L37.0347 18.5891L36.7474 18.3845L36.5612 18.2412L36.3408 18.121L36.2858 18.1281L36.1044 18.0215L35.5513 17.777C35.0212 17.5668 34.5373 17.425 34.0351 17.2857C33.9985 17.2904 33.9412 17.2793 33.9229 17.2817C33.6109 17.1734 33.5902 17.1574 32.7075 16.9559L31.9992 16.8061C31.9443 16.8133 31.9236 16.7974 31.8869 16.8021L31.6808 16.7918L31.4651 16.7082L31.1444 16.6755L30.7249 16.5998C30.6883 16.6045 30.631 16.5934 30.631 16.5934L30.4201 16.5464C30.3835 16.5512 30.3445 16.5376 30.3262 16.54L30.1956 16.5384L29.9481 16.4962C29.8566 16.5081 29.7237 16.4882 29.6321 16.5001L29.1601 16.4499C29.0686 16.4618 28.9906 16.4347 28.8991 16.4466L28.7112 16.4339L28.5258 16.4394L28.1366 16.4529L28.0769 16.4234C28.0037 16.433 27.928 16.4242 27.8548 16.4337L27.6049 16.3732C27.5842 16.3573 27.5659 16.3597 27.5293 16.3644L27.3048 16.3564L27.1242 16.3986L26.7668 16.3707C26.6386 16.3874 26.5057 16.3674 26.3959 16.3817L25.3795 16.4397L25.1232 16.473L25.0157 16.5057L24.9059 16.52L24.6472 16.535L23.8966 16.6328L23.544 16.6415C23.4342 16.6558 23.3267 16.6884 23.2169 16.7027L22.9423 16.7385L22.0524 16.9103C21.9059 16.9294 21.7619 16.9667 21.5812 17.0089L21.4053 17.0877L21.2612 17.125L21.0208 17.1377L20.8927 17.1544L19.5594 17.4957L18.6361 17.8393L18.1036 18.039L17.6124 18.2706L17.2176 18.5268L16.939 18.6748L16.7607 18.7352L16.3404 18.9389L16.0252 19.0917L15.7991 19.2142C15.7649 19.2373 15.7012 19.3201 15.6829 19.3224L15.2443 19.5285L15.2101 19.5516L15.0389 19.667L14.7762 19.7943L14.457 20.0593L13.9826 20.4189L13.661 20.6656L13.4333 20.9187L13.1738 21.2131C12.8681 21.4391 12.7583 21.4534 12.6484 21.4678C12.3945 21.5194 12.1836 21.4724 12.0499 21.3037L11.847 21.0322C11.7475 20.8404 11.8335 20.643 12.1273 20.3255L12.3964 20.1043L13.0013 19.7462L13.3229 19.4995L13.9462 19.1391L14.1906 19.0142L14.5607 18.8542L15.0837 18.5813L15.223 18.5073L15.7165 18.2941L15.8606 18.2567L16.2283 18.0785L16.4226 17.9973L16.5276 17.9464L16.8086 17.8167C16.8245 17.796 16.9296 17.7451 16.9638 17.722L17.1397 17.6433L17.2655 17.6083L17.8848 17.3601L18.1363 17.2901L18.5709 17.1962C18.6441 17.1867 18.715 17.1588 18.8543 17.0848C18.9299 17.0936 18.9641 17.0705 18.9824 17.0681L19.0485 17.0037L19.3207 16.9496L19.4624 16.8939L19.7529 16.8374C19.7896 16.8327 19.8262 16.8279 20.1462 16.7118L20.7431 16.5781L20.798 16.571L20.9373 16.497L21.0472 16.4827L21.1523 16.4318L21.3902 16.4008L21.6625 16.3467L21.9116 16.2584L22.4608 16.1868C22.6622 16.1606 22.8429 16.1185 23.1151 16.0644L23.2409 16.0294L23.5704 15.9865L23.7328 15.9467L24.1928 15.9054L24.703 15.8203L24.7969 15.8267L25.4377 15.7432L25.5865 15.7425L25.7147 15.7258L25.8269 15.7298C25.9001 15.7202 25.9757 15.729 26.049 15.7195L26.2686 15.6908L26.4358 15.6877L27.2485 15.6377C27.2668 15.6353 27.301 15.6122 27.3193 15.6098L27.4474 15.5932L27.617 15.6083L28.3476 15.6435C28.3659 15.6411 28.4368 15.6132 28.4551 15.6108L28.7942 15.6411L28.9406 15.6221L29.1078 15.6189L29.4102 15.654L29.7103 15.6707C29.7835 15.6612 29.8249 15.6931 29.8981 15.6835L30.031 15.7034L30.1982 15.7003L30.3725 15.752C30.4274 15.7449 30.5396 15.7489 30.5651 15.8014C30.6017 15.7967 30.6407 15.8102 30.659 15.8078L31.3284 15.944C31.521 15.9934 31.7271 16.0038 31.9173 16.0349L32.1736 16.0015L32.254 16.0469C32.3296 16.0556 32.4283 16.0986 32.5039 16.1074L33.0515 16.1664L33.0905 16.1799L33.2027 16.1839L33.3173 16.2062L33.549 16.2692L33.7026 16.305L34.2278 16.4786L34.4642 16.5781L34.8773 16.7477L35.233 16.9062C35.2537 16.9221 35.2951 16.954 35.3317 16.9492L35.6143 17.1172L35.7726 17.1896L35.8092 17.1849L36.2454 17.3887C36.282 17.3839 36.3393 17.3951 36.3576 17.3927L36.4841 17.5066L36.5621 17.5336L36.6815 17.5925L36.8192 17.6491L36.8813 17.6968L37.0007 17.7558L37.1383 17.8123L37.3039 17.9397L37.3134 18.0129C37.4973 18.1379 37.7042 18.2971 37.8721 18.4428L37.9708 18.4858L38.0559 18.5678C38.1132 18.579 38.1315 18.5766 38.1498 18.5742L38.4355 18.9093L38.5302 19.0645C38.6408 19.1991 38.7817 19.4228 38.9201 19.6281L39.0029 19.6918L39.0474 19.8908C39.0498 19.9091 39.0657 19.8884 39.0681 19.9067C39.135 19.9911 39.1397 20.0277 39.1907 20.1328L39.2742 20.3453L39.3418 20.5786C39.3673 20.6311 39.411 20.6812 39.4556 20.8802L39.5208 21.0951L39.5192 21.2257L39.5868 21.4589L39.6488 21.9349L39.6313 22.0861L39.4816 22.3662L39.2077 22.9791C39.0357 23.3738 38.8478 23.7893 38.4728 24.3408L38.3796 24.4832L38.2841 24.6074L38.1392 24.9241L37.9338 25.0626L37.8311 25.1318L37.7834 25.1939L37.7173 25.2584L37.5581 25.4653L37.4689 25.4955L37.2182 25.7143L37.1839 25.7374L37.0518 25.8663L36.9562 25.9905L36.7628 26.2205L36.6991 26.3032L36.4308 26.6733L36.235 26.885L36.0001 27.0831L35.8911 27.2463L35.7112 27.4373L35.3052 27.7508L35.2025 27.82L35.173 27.8797L35.0616 28.0246L34.8833 28.085L34.7575 28.12L34.5816 28.1988C34.4606 28.2704 34.3969 28.3532 34.3285 28.3993C34.3149 28.4383 34.2671 28.5004 34.2671 28.5004L34.2305 28.5052L33.9615 28.7264L33.7195 28.8696L33.7012 28.872L33.6216 28.9755L33.503 29.0654L33.1264 29.3192C33.1129 29.3582 33.0651 29.4203 33.0651 29.4203L32.9577 29.4529L32.7634 29.5341L32.5851 29.5945L32.4578 29.76C32.332 29.795 32.1951 29.8873 32.2046 29.9606L31.8528 30.1181C31.8369 30.1388 31.805 30.1802 31.7867 30.1826L31.0337 30.6902L30.7479 30.7833L30.3029 31.0833L30.1684 31.1939L30.0817 31.2425L29.6892 31.517L29.534 31.6117L29.3764 31.6881L29.2212 31.7827L29.0978 31.8361L28.9561 31.8917L28.7165 32.0533L28.5724 32.0907C28.5016 32.1185 28.3806 32.1901 28.3463 32.2132C28.3121 32.2363 28.246 32.3007 28.246 32.3007L28.0884 32.3771L28.0359 32.4026L27.3235 32.7933L27.1452 32.8537L26.7639 33.0709L26.5927 33.1863L26.4327 33.2444L26.1884 33.3693C26.065 33.4226 25.9281 33.5149 25.8047 33.5682L25.7864 33.5706L25.1217 33.8992L25.0533 33.9454L24.2835 34.3249L24.2334 34.3687L24.0965 34.461L23.9317 34.4824C23.8951 34.4872 23.9317 34.4824 23.8975 34.5055L23.7996 34.6113L23.5273 34.6654L23.3148 34.749L22.9471 34.9272L21.2882 35.6273C21.254 35.6504 21.1879 35.7149 21.1879 35.7149L21.0096 35.7753L20.8886 35.8469L20.5869 35.9607L19.7185 36.2972C19.6843 36.3203 19.6365 36.3824 19.584 36.4078L19.5108 36.4174L19.1589 36.5749L19.0674 36.5868L19.0698 36.6051L18.9679 36.8232L18.9463 37.0867L18.7075 37.397L18.5427 37.4185L18.4122 37.4169C18.3501 37.3691 18.2697 37.3237 18.2188 37.2187L18.2674 36.8772L18.199 36.9234L18.0708 36.9401L17.9084 36.9798L17.6776 37.0657L17.5383 37.1397L17.0583 37.314L16.6763 37.3823L16.5346 37.438ZM44.6144 27.1526L44.4775 27.2449L44.2793 27.4383L44.0373 27.5815L43.8956 27.6372L43.7794 27.7454L43.7292 27.7892C43.6584 27.817 43.574 27.8839 43.5031 27.9117L43.3344 28.0454L43.2476 28.0939L42.9212 28.304L42.8552 28.3685L42.5861 28.5897L42.4468 28.6637C42.4309 28.6844 42.3624 28.7305 42.3441 28.7329L42.1069 28.9128L41.9859 28.9844L41.8625 29.0377L41.5768 29.1307L41.3372 29.2923L41.0856 29.3623L40.827 29.3774L40.6144 29.4609L40.1082 29.4337C39.918 29.4027 39.7572 29.3119 39.6052 29.1455L39.4994 29.0476L39.4986 28.8988C39.4636 28.773 39.4509 28.5326 39.4844 28.3607L39.4701 28.2509L39.5505 27.868L39.6493 27.4828C39.6469 27.4645 39.6764 27.4048 39.6716 27.3682L39.7847 27.0928L39.8938 26.9297C39.8914 26.9114 39.9049 26.8724 39.9049 26.8724L40.0506 26.7045L40.1231 26.5461C40.1501 26.4681 40.2138 26.3853 40.2409 26.3073L40.2791 26.172L40.3357 26.0343L40.3834 25.9723C40.4288 25.8919 40.4694 25.7749 40.5172 25.7128L40.6509 25.4534L40.6939 25.3547L40.8802 25.0698L41.1207 24.6289L41.1836 24.3973L41.3834 24.0733L41.4583 23.9333L41.5124 23.7773L41.5944 23.6921L41.7847 23.295L41.9344 23.0149L42.1119 22.8056C42.2075 22.6814 42.463 22.4992 42.7376 22.4634C42.8705 22.4833 43.0194 22.4826 43.1897 22.6466L43.2064 22.7747L43.2031 23.0358L43.0622 23.2403L42.8735 23.5069L42.6435 23.7417L42.3999 24.0154L42.3616 24.1507L42.0591 24.5439L41.9094 24.824L41.8051 25.0238L41.6937 25.1686C41.6825 25.2259 41.6873 25.2625 41.6897 25.2808L41.5209 25.4145C41.5233 25.4328 41.4938 25.4925 41.4803 25.5315L41.2462 25.8785L41.0281 26.2048L40.9238 26.4046L40.8513 26.5629L40.6953 26.937L40.6156 27.0405C40.552 27.1232 40.5543 27.1415 40.5408 27.1805L40.4715 27.5061L40.4468 27.6024L40.3297 27.99L40.2859 28.368L40.2954 28.4412L40.2874 28.6657L40.2946 28.7206L40.4227 28.7039L40.5533 28.7055L40.6241 28.6777L40.7316 28.6451L40.8438 28.6491L40.9353 28.6372C41.0611 28.6022 41.1638 28.5329 41.3079 28.4955L41.4655 28.4192L41.6255 28.3611C41.6414 28.3404 41.6756 28.3173 41.6756 28.3173L41.9471 28.1144L42.0131 28.0499L42.4382 27.8829L42.7168 27.7349L42.8585 27.6792L43.4245 27.3076L43.5614 27.2153L43.8328 27.0124L44.0517 26.8349L44.1863 26.7243L44.2937 26.6917L44.394 26.6041L44.6129 26.4267L44.7315 26.3368L44.882 26.2055L44.9457 26.1227L45.2195 25.9381L45.3015 25.8529L45.7123 25.576L45.8651 25.463L45.8993 25.44L46.0156 25.3317L46.0522 25.327L46.1318 25.2235L46.2528 25.1519L46.3165 25.0691L46.5035 24.9331L46.6221 24.8431L46.6906 24.797L46.7933 24.7277C46.9119 24.6378 47.0098 24.532 47.1627 24.419L47.2606 24.3131L47.4643 24.3052L47.6275 24.4143L47.6673 24.5767L47.4945 24.8226L47.3894 24.8735L47.2915 24.9794L47.0177 25.164L46.4955 25.5857L46.345 25.717L46.1332 25.9494L46.0099 26.0027L45.9231 26.0512C45.6222 26.3138 45.3237 26.5948 45.0363 26.8184L44.9408 26.9425L44.8723 26.9887L44.6805 27.0881L44.6144 27.1526ZM45.0522 17.9357L45.0752 17.97C45.1079 18.0774 45.1405 18.1849 45.1277 18.3727C45.0624 18.586 44.9239 18.8089 44.5497 19.081L44.3515 19.2744L44.2854 19.3388C44.2034 19.424 44.0689 19.5346 44.0052 19.6174L43.7139 19.9532L43.4519 20.2293L43.3357 20.3376C43.2513 20.4044 43.1232 20.4211 42.995 20.4378L42.9274 20.2046L42.9362 20.129L43.1138 19.4915L43.1703 19.3538L43.3766 18.9359L43.4968 18.7155L43.5581 18.6144L43.699 18.4099L43.8152 18.3017L43.9131 18.1958L44.152 17.8854L44.3574 17.747L44.499 17.6913C44.815 17.6874 44.9599 17.7988 45.0522 17.9357ZM77.7094 19.3416L77.5534 19.2874L77.4985 19.2946L77.2366 19.1425L77.1013 19.1043L76.771 18.9984C76.7344 19.0032 76.7296 18.9665 76.7113 18.9689L76.5991 18.9649L76.4113 18.9522L76.2505 18.8614L76.1908 18.8319L75.9545 18.7324L75.4315 18.5771L75.1426 18.503L74.7184 18.3907L74.6794 18.3772L74.3149 18.2944L73.9368 18.2505L73.7625 18.1987L73.6432 18.1398L73.4275 18.0562L73.0582 17.9368L73.0009 17.9256L72.5305 17.7449C72.4549 17.7361 72.2989 17.6819 72.2209 17.6549L71.7577 17.529L71.2236 17.431L70.7214 17.2917L70.5288 17.2423L70.2646 17.0719L70.1015 16.9628L69.803 16.8155L69.647 16.7614L69.234 16.5918L69.078 16.5376C69.039 16.5241 69.0183 16.5082 69 16.5105L68.8671 16.4906L68.6904 16.4205L68.4858 16.2796L68.4675 16.282L68.2606 16.1228L68.1293 15.9723L68.0465 15.9087L67.8834 15.7996L67.8189 15.7335L67.7338 15.6515L67.6439 15.5329L67.5611 15.4692L67.5261 15.3434L67.4433 15.2798L67.3964 15.0625L67.3431 14.9391L67.3002 14.6096L67.3113 14.5523L67.317 14.3095L67.3799 14.0779L67.4699 13.7683L67.5423 13.6099L67.6012 13.4905L67.8194 13.1642L67.9285 13.0011L68.1442 12.6565L68.434 12.4512L68.5319 12.3453L68.9331 11.9952L69.0883 11.9005L69.1202 11.8591L69.6065 11.591L69.7228 11.4828L70.186 11.1804L70.4463 11.0348L70.8706 10.7189L71.1946 10.4905L71.2288 10.4674L71.8863 10.0839L71.9572 10.056L72.0806 10.0027L72.1514 9.97488L72.2016 9.93112L72.43 9.82689L72.5876 9.75051L72.7269 9.67651L73.191 9.52297L73.4083 9.47605C73.5157 9.44344 73.6184 9.37421 73.7259 9.34159C73.7967 9.31375 73.8994 9.24452 73.9519 9.21906L74.1852 9.15145L74.5441 9.04883L74.8665 8.95099L74.9374 8.92314L75.1706 8.85553L75.4906 8.73938L75.7262 8.69007L75.8909 8.66861L76.0238 8.68853L76.2069 8.66469L76.3971 8.69576C76.5094 8.69976 76.6972 8.71253 76.8325 8.75075L76.9471 8.77306C77.1079 8.86383 77.2917 8.98882 77.4119 9.19658L77.4397 9.26742L77.5161 9.42503L77.5328 9.55318L77.5248 9.77763L77.551 9.979L77.543 10.2035L77.5669 10.3865L77.309 10.5504L77.0845 10.5424L76.841 10.388L76.6062 10.1579L76.541 9.94301L76.4328 9.82679L76.3269 9.72887C76.2903 9.73364 76.233 9.72249 76.2147 9.72487L76.0404 9.6731L75.7539 9.61734C75.6806 9.62688 75.5843 9.60219 75.5111 9.61173L75.1609 9.63873L74.9141 9.74534L74.6101 9.8408L74.3379 9.89487L73.9311 10.0596C73.7504 10.1017 73.5196 10.1876 73.3389 10.2298L73.1606 10.2902C73.0348 10.3252 72.9321 10.3945 72.8247 10.4271L72.4729 10.5846C72.121 10.7422 71.8377 10.8535 71.4404 11.0915L71.2191 11.2506L71.1077 11.3954L70.9684 11.4694L70.6667 11.5832L69.6056 12.2986L69.4233 12.4713L68.9337 13.0005C68.761 13.2464 68.5611 13.5703 68.4934 13.7653L68.417 14.0359L68.2968 14.2563L68.2561 14.3733C68.2609 14.4099 68.2864 14.4625 68.2911 14.4991L68.3556 14.5652L68.4487 14.8509L68.5203 14.9719L68.654 15.1407C68.6771 15.1749 68.7184 15.2068 68.7574 15.2203L68.9047 15.3501L68.9325 15.4209C68.9787 15.4894 69.0614 15.553 69.1076 15.6215L69.2914 15.7465L69.4291 15.803L69.5692 15.8779L69.7069 15.9344L70.0101 16.1183L70.3244 16.2449L70.6691 16.4607L70.786 16.5013C70.8434 16.5125 70.9007 16.5236 70.9556 16.5165L71.254 16.6638L71.5867 16.788C71.6233 16.7832 71.6623 16.7967 71.6806 16.7944L71.9719 16.8867L72.3205 16.9903L73.1626 17.3088L73.1809 17.3064L73.6282 17.4529L73.7245 17.4776L73.9425 17.5795L74.6214 17.789L74.8483 17.8153L75.0934 17.8392L75.3775 17.8767L75.7126 18.0192L76.0429 18.1251L76.6024 18.2757L76.8499 18.3179L77.0083 18.3903L77.2057 18.4763L77.4238 18.5782L77.8321 18.7112L78.16 18.7988L78.5866 18.9295C78.6256 18.943 78.7195 18.9494 78.7378 18.947L78.8802 19.0401L79.0275 19.1699L79.1079 19.2153L79.1882 19.2607L79.3856 19.3467C79.4477 19.3944 79.5233 19.4032 79.5623 19.4167C79.6976 19.455 79.7573 19.4844 79.8974 19.5593L79.9571 19.5887L80.2141 19.7042L80.4743 19.9868C80.4974 20.021 80.5436 20.0895 80.5619 20.0871L80.6796 20.2765L80.9056 20.5822L80.9892 20.7947C81.1626 21.1259 81.1929 21.215 81.2127 21.5103C81.2151 21.5286 81.2382 21.5629 81.2405 21.5812L81.2739 21.8375L81.2476 22.0643L81.1027 22.3811C81.0079 22.654 80.8416 22.806 80.6298 23.0384L80.4706 23.2453C80.2588 23.4777 80.0741 23.6321 79.8417 23.8485C79.7756 23.913 79.6642 24.0578 79.6323 24.0992L79.4771 24.1939L79.4222 24.2011L78.334 24.9944L78.2974 24.9992L77.7314 25.3708L77.5539 25.5801L77.4671 25.6286L76.9648 25.9175L76.5063 26.2565L76.2413 26.3655L75.6634 26.6455L74.8634 26.9359L73.9886 27.3663L73.3375 27.656L73.1432 27.7371L73.0175 27.7721L72.9673 27.8159L72.508 28.006L72.0559 28.2511L71.8091 28.3577L71.3363 28.5869L71.0092 28.6481L70.5364 28.8772L69.3615 29.2909L67.7894 29.9425L66.9003 30.2631L66.1545 30.3975L65.2208 30.5191C65.0218 30.5636 64.8276 30.6448 64.6469 30.687L64.1391 30.7903C63.5238 30.9263 62.8329 31.0536 62.2129 31.1529L62.1444 31.1991L61.9637 31.2413L61.1606 31.3645L61.0874 31.374L60.8542 31.4416L59.989 31.5171L59.5751 31.6269L59.4079 31.63L58.975 31.5933C58.8834 31.6053 58.7871 31.5806 58.7139 31.5901L58.4321 31.571L58.2809 31.5534L58.0063 31.5892L57.7659 31.6019L57.7086 31.5907L57.4293 31.5899L57.0034 31.6081L56.7607 31.6025L55.9035 31.4535C55.8852 31.4559 55.8462 31.4424 55.8462 31.4424L55.4108 31.3874L55.3352 31.3786L55.0964 31.2608C54.6674 31.1118 54.4931 31.0601 54.2401 30.8324L53.9966 30.6779L53.7777 30.4272L53.5883 30.1167L53.5605 30.0459L53.4499 29.9114L53.2883 29.6718L53.1865 29.4616L53.1722 29.3518L53.1189 29.2284L53.1046 29.1186L53.1062 28.988L53.1508 28.7588C53.1484 28.7405 53.162 28.7015 53.1596 28.6832L53.166 28.5893L53.2225 28.4516C53.2313 28.376 53.2607 28.3163 53.3403 28.2128L53.4359 28.0887L53.5338 27.9828L53.7042 27.7186C53.7973 27.5762 54.0043 27.3072 54.1181 27.1806L54.8991 26.3156L55.1316 26.0991L55.2589 25.9336L55.3887 25.7864L55.7055 25.5031L56.0319 25.293L56.1688 25.2007L56.2946 25.1657L56.5556 25.1689L56.5866 25.4069L56.5643 25.5215L56.437 25.6871L56.1631 25.8717C56.0947 25.9178 56.1018 25.9727 55.9808 26.0444L55.8304 26.1757L55.7961 26.1987L55.7006 26.3229L55.5525 26.4725L55.3249 26.7256L55.1609 26.8959L55.0423 26.9858L55.0128 27.0455L54.9467 27.1099L54.8058 27.3145L54.6466 27.5214L54.3417 27.8962C54.2055 28.1374 54.0789 28.4517 54.0232 28.7383L53.9762 28.9492C53.965 29.0065 53.9634 29.137 53.9682 29.1736L53.9872 29.3201L54.0548 29.5533L54.1082 29.6767L54.1822 29.816L54.3182 30.003L54.3803 30.0508L54.6421 30.2029L54.9477 30.4051L55.134 30.5484L55.2279 30.5548C55.2645 30.55 55.3035 30.5636 55.3218 30.5612L55.4388 30.6018L55.7691 30.7077L55.9115 30.8008L55.9299 30.7985L56.5347 30.8686L56.7823 30.9108L56.9566 30.9626L56.9932 30.9578C57.4628 30.9898 57.9483 31.001 58.4474 30.9732C58.4657 30.9708 58.4864 30.9867 58.5047 30.9844L58.8549 30.9574L58.9647 30.9431C58.983 30.9407 58.9854 30.959 59.0586 30.9494L59.221 30.9097L59.2966 30.9184L59.3858 30.8882L59.6238 30.8572L59.7201 30.8819L59.8092 30.8517L59.9947 30.8461L60.7453 30.7484L61.0175 30.6943L61.0931 30.7031L61.7657 30.5782L61.9806 30.513L62.209 30.4087L62.4494 30.3961L62.6166 30.3929L63.1403 30.2688L63.2685 30.2521L63.5749 30.175L63.7325 30.0986L64.2061 30.0183L64.4393 29.9507L65.0705 29.794L65.7177 29.6166L65.8983 29.5745L66.0949 29.5116L66.516 29.4568L67.6749 29.0638L68.0817 28.8991L68.2075 28.8641L68.4359 28.7599L68.7264 28.7034L69.2247 28.5268L69.4874 28.3995L70.4514 27.9388L71.1717 27.7519L71.5235 27.5944L72.154 27.2888L72.2638 27.2745L72.9516 26.9801L73.1386 26.8441L73.4491 26.6547L73.5541 26.6038L73.7531 26.5592L74.2992 26.3205L74.4544 26.2259L74.8222 26.0476L74.9384 25.9394L75.3634 25.7723L75.6054 25.6291L76.2359 25.3236L76.9228 24.8804L77.0462 24.8271L77.2516 24.6886L77.7101 24.3496L77.8152 24.2987L78.0389 24.1578L78.4544 23.9175L78.6231 23.7839L78.7282 23.7329C78.8285 23.6454 78.9973 23.5117 79.0793 23.4266L79.2162 23.3343L79.3985 23.1616L79.4916 23.0191L79.6325 22.8146L79.8332 22.6395L79.9518 22.5496C80.1882 22.2209 80.2511 21.9893 80.2567 21.7466C80.2544 21.7282 80.279 21.6319 80.2767 21.6136L80.2091 21.3804L80.1526 21.0899C80.1319 21.074 80.1088 21.0397 80.1088 21.0397L80.0834 20.9872L79.9107 20.8049L79.512 20.3169C79.3282 20.1919 79.0202 19.9714 78.8021 19.8695L78.3636 19.6473L78.2442 19.5884L77.7898 19.387L77.7094 19.3416ZM88.6004 11.202L88.8726 11.148L89.1154 11.1536L89.1265 11.0963L89.5326 10.3545L89.578 10.2741L89.7595 9.95262L89.9323 9.70671L89.9936 9.60563L90.1592 9.3048L90.2069 9.24272C90.2046 9.22442 90.2181 9.18542 90.2181 9.18542L90.3295 9.04058L90.3909 8.93951L90.4386 8.87743L90.5135 8.73736L90.5111 8.71905L90.5835 8.56067L90.7611 8.35138L90.8861 8.16754L90.9681 8.08239L91.0317 7.99962L91.1862 7.75609L91.3613 7.52848L91.5579 7.46564L91.7251 7.46248L91.9527 7.63763L92.0291 7.79524L92.0832 8.06746L91.9924 8.22822L91.8284 8.39852L91.7217 8.57997L91.5808 8.78451L91.49 8.94527L91.26 9.18003L91.1055 9.42356L90.7552 9.87877L90.178 10.7359L90.0395 10.9587L90.2202 10.9166L90.5107 10.8601L91.0528 10.7337L91.7325 10.6637L92.2562 10.5397L92.7688 10.4729L92.9407 10.5063L93.0689 10.4897L93.314 10.5136C93.353 10.5271 93.4836 10.5287 93.5202 10.524L93.7168 10.4611L93.9802 10.4826C94.0718 10.4707 94.1585 10.4222 94.2501 10.4103L94.3782 10.3936L94.582 10.3856L94.8088 10.412C94.8271 10.4096 94.8844 10.4207 94.9027 10.4183L95.0882 10.4128L95.5992 10.4766C95.6199 10.4925 95.6955 10.5013 95.7138 10.4989L96.0067 10.4607L96.1651 10.5332L96.536 10.5221C96.5726 10.5173 96.6116 10.5309 96.6299 10.5285L96.7517 10.6057C96.7517 10.6057 96.7493 10.5874 96.8249 10.5962L97.4807 10.7714C97.5014 10.7873 97.5404 10.8008 97.5587 10.7985L97.9439 10.8972C97.9829 10.9108 97.9829 10.9108 98.0012 10.9084C98.0219 10.9243 98.0426 10.9402 98.0243 10.9426L98.1548 10.9442L98.4278 11.039L98.5177 11.1576L98.6371 11.2165L98.7653 11.1998L98.9356 11.3638L99.1194 11.4888L99.1815 11.5366C99.2181 11.5318 99.2388 11.5477 99.2571 11.5453L99.5173 11.8279L99.538 11.8439L99.6948 12.0469L99.7895 12.2021L99.9263 12.538L100.003 12.6956L100.031 12.9153L99.9437 13.2432L99.8689 13.3833L99.7359 13.3633L99.6301 13.2654L99.5346 12.9614C99.5299 12.9247 99.5044 12.8722 99.4996 12.8356C99.4511 12.7488 99.3564 12.5936 99.3126 12.5435L99.167 12.2832L99.0103 12.0802L98.84 11.9162L98.6561 11.7912L98.6378 11.7936L98.337 11.628C98.2797 11.6168 98.181 11.5738 98.181 11.5738C98.1627 11.5762 98.142 11.5603 98.142 11.5603L97.9446 11.4743L97.83 11.452C97.7934 11.4567 97.6422 11.4392 97.5546 11.3389L97.2657 11.2648C97.1742 11.2767 97.023 11.2592 96.9314 11.2711L96.7619 11.256L96.5279 11.1748L96.2438 11.1373C96.0352 11.1086 95.8498 11.1141 95.6253 11.1061C95.5155 11.1205 95.3643 11.1029 95.2727 11.1148L94.9544 11.1005C94.9177 11.1052 94.8604 11.0941 94.8421 11.0965L94.6591 11.1203L94.515 11.1577L94.1783 11.1457C94.1234 11.1528 94.0661 11.1417 94.0295 11.1465L93.8647 11.1679L93.622 11.1623C93.4731 11.1631 93.3267 11.1822 93.1985 11.1989L93.1277 11.2267L93.0704 11.2155C93.0154 11.2227 92.9581 11.2115 92.9032 11.2187L92.7751 11.2354C92.1892 11.3117 91.6034 11.388 91.02 11.4826L90.9492 11.5105L90.8098 11.5845L90.2813 11.6719L90.064 11.7188L89.4217 11.9328L89.2831 12.1557L89.0857 12.4979L89.0475 12.6332L88.9472 12.7207C88.854 12.8632 88.7903 12.946 88.7155 13.086C88.7179 13.1043 88.7067 13.1616 88.7067 13.1616L88.4567 13.5293L88.2346 13.9678L88.0984 14.209L87.8007 14.6387L87.315 15.4839L87.2083 15.6654L86.9177 16.1501L86.8771 16.2671L86.7816 16.3912C86.7497 16.4326 86.7227 16.5106 86.6932 16.5703L86.6096 16.786L86.5165 16.9284L86.4074 17.0916L86.2959 17.2364L86.1892 17.4179L86.1598 17.4775L86.108 17.6518L85.772 18.2169L85.5698 18.5225L85.1701 19.1703L84.905 19.7075L84.6351 20.2081C84.6104 20.3044 84.5873 20.2702 84.5443 20.3689L84.3015 20.7915L84.2426 20.9109L84.0889 21.3032C84.0666 21.4178 84.0212 21.4982 83.9989 21.6128L83.8492 21.893L83.6979 22.3037L83.6032 22.5766L83.6151 22.6682L83.6135 22.7987L83.498 23.0558C83.5075 23.129 83.4486 23.2484 83.4582 23.3216L83.4613 23.4888L83.4796 23.4864L83.7996 23.3702L83.923 23.3169L84.0647 23.2612L84.1992 23.1506L84.3385 23.0766L84.4778 23.0026L84.6123 22.892L84.7381 22.857L84.8957 22.7806L84.9801 22.7138L85.0899 22.6995L85.5349 22.3995L85.8613 22.1894L86.03 22.0557L86.19 21.9977L86.2585 21.9515L86.7584 21.6444L86.9614 21.4876L87.0322 21.4598L87.806 20.968L88.0089 20.8112L88.1299 20.7396L88.3218 20.6402L88.5638 20.4969L88.6251 20.3959L88.8941 20.1746L89.1043 20.0728L89.3487 19.9479L89.7912 19.6296L89.8438 19.6041L89.9417 19.4983L90.2132 19.2954L90.2999 19.2468L90.3525 19.2214L90.3867 19.1983L90.5053 19.1084L90.7226 19.0614L90.8444 19.1387L90.8841 19.3011L90.8849 19.4499L90.7161 19.5836L90.6134 19.6528L90.5816 19.6942L90.1302 20.0881L90.1143 20.1088L89.9774 20.2011L89.7927 20.3555L89.5213 20.5584L89.3318 20.6762L89.1718 20.7342L88.9322 20.8958L88.8136 20.9857L88.7818 21.0271L88.5445 21.2069L88.4283 21.3151L87.9945 21.5578L87.7827 21.7902L87.6594 21.8435L87.4492 21.9453L87.4309 21.9477C87.3967 21.9708 87.3489 22.0329 87.333 22.0536C87.3011 22.095 87.2486 22.1204 87.2327 22.1411L87.1252 22.1737L86.9859 22.2477L86.8992 22.2963L86.7551 22.3336C86.7368 22.336 86.6866 22.3798 86.6866 22.3798L86.5839 22.449L86.244 22.6981L86.0729 22.8135L85.893 23.0045L85.8381 23.0116L85.6693 23.1453L85.3907 23.2933L85.0898 23.5559L84.9115 23.6164L84.6377 23.801L84.1831 24.0277L83.532 24.3173L83.2964 24.3666L83.2025 24.3603L83.0696 24.3403L82.9573 24.3363L82.7257 24.2734L82.608 24.084L82.5499 23.924L82.5213 23.7043C82.5165 23.6677 82.5253 23.5921 82.5229 23.5738C82.5245 23.4432 82.558 23.2713 82.6137 22.9848C82.609 22.9482 82.6313 22.8336 82.6265 22.797L82.7013 22.6569L82.6942 22.602L82.7189 22.5057L82.8256 22.3242L82.8749 22.1316L83.0286 21.7392L83.1035 21.5992C83.0987 21.5625 83.1258 21.4845 83.1234 21.4662L83.2165 21.3238L83.2938 21.202C83.3256 21.1606 83.3344 21.085 83.3662 21.0436L83.4411 20.9036L83.5589 20.6648L83.6815 20.4627L83.7564 20.3226L83.8814 20.1388L83.9403 20.0194L84.0629 19.8172L84.1879 19.6334C84.1831 19.5968 84.1966 19.5578 84.1943 19.5395L84.2898 19.4153L84.3511 19.3142L84.4737 19.1121L84.5621 18.933L84.664 18.715L84.7524 18.5359L84.875 18.3337C84.8726 18.3154 84.8909 18.3131 84.8885 18.2947L85.1019 17.9318L85.1879 17.7345L85.4108 17.4448L85.5629 17.1829C85.6536 17.0222 85.742 16.8431 85.8806 16.6203L85.9236 16.5216L86.0692 16.3537C86.2484 16.0138 86.4387 15.6167 86.6202 15.2952L86.6998 15.1917L86.9745 14.7277C87.086 14.5829 87.1154 14.5232 87.1743 14.4038L87.2627 14.2248L87.4379 13.9972L87.5032 13.7839L87.7118 13.3843L87.7667 13.3772L87.7938 13.2992L87.9594 12.9983L88.1433 12.6951L88.2683 12.5113L88.3248 12.3736L88.5 12.146L88.5087 12.0704L88.4172 12.0823L88.2023 12.1475L87.6578 12.2557L87.1182 12.4005L86.9558 12.4402L86.83 12.4752L86.3684 12.6471L86.2267 12.7028L85.324 13.0624L85.1847 13.1364L85.0613 13.1897L84.9037 13.266L84.3465 13.562L84.1913 13.6567L83.8164 13.78L83.4821 13.7863L83.2895 13.737L83.1653 13.6414L83.0181 13.5117L82.9688 13.2761L82.984 13.1065C83.011 13.0285 83.0357 12.9322 83.2252 12.8145L83.3462 12.7428C83.6224 12.5765 83.78 12.5002 84.0658 12.4071L84.299 12.3395L84.5752 12.1732L84.884 12.1143L84.9986 12.1366L85.719 11.9497L85.7715 11.9243L86.2746 11.7843L86.6543 11.6976L86.7116 11.7087L86.8373 11.6737L86.8922 11.6666L87.3722 11.4923L87.4956 11.439L87.6054 11.4247L87.9119 11.3476L87.9644 11.3221L88.0584 11.3285L88.3624 11.233L88.6004 11.202ZM90.5043 20.0952L90.3889 20.3523C90.3706 20.3547 90.3706 20.3547 90.3729 20.373L90.2376 20.763C90.2543 20.8911 90.2693 21.1498 90.2836 21.2596C90.2725 21.3169 90.2892 21.4451 90.3584 21.5478C90.4022 21.5979 90.4961 21.6043 90.7779 21.6235L91.0437 21.6633L91.2817 21.6323L91.5515 21.5599L92.7948 21.1001L93.0894 20.9314L93.7198 20.6259L93.8726 20.5129L93.9801 20.4803L95.0006 19.8819L95.19 19.7641L95.3866 19.7013L95.9805 19.4005L96.033 19.3751C96.3434 19.1857 96.599 19.0035 96.841 18.8602L97.5279 18.417L97.7675 18.2555L97.8384 18.2276L98.0095 18.1123L98.2722 17.985L98.788 17.6571L98.8859 17.5513L99.6613 16.929L100.001 16.6799C100.117 16.5717 100.136 16.5693 100.204 16.5232C100.27 16.4587 100.323 16.4332 100.449 16.3983C100.558 16.3839 100.705 16.3649 100.776 16.4859C100.846 16.5885 100.744 16.8066 100.625 16.8965L100.488 16.9888L100.388 17.0764L100.035 17.3644L99.818 17.5602L99.7837 17.5833L99.4279 17.853L99.2934 17.9637L99.1748 18.0536L99.0928 18.1387L98.9877 18.1896L98.9511 18.1944L98.5061 18.4944C98.4719 18.5175 98.4058 18.5819 98.4058 18.5819L98.2347 18.6973C98.2004 18.7204 98.0794 18.792 98.0134 18.8565L97.3582 19.2583L97.1529 19.3968C97.016 19.4891 96.8814 19.5997 96.7421 19.6737L96.6944 19.7357L95.9047 20.2482L95.4709 20.4909L95.3109 20.5489L95.1557 20.6436C94.9479 20.7638 94.7035 20.8887 94.4775 21.0112C94.3907 21.0598 94.3087 21.1449 94.2219 21.1935L93.6743 21.5627L93.3177 21.6836L93.0367 21.8133L92.7398 21.9637L92.4357 22.0591L92.3306 22.1101C92.2622 22.1562 92.1364 22.1912 91.9764 22.2493L91.6771 22.3814L91.5697 22.414L91.2314 22.5325L90.8883 22.6144L90.4211 22.6008L89.9348 22.4407L89.6308 22.108L89.5083 21.8819L89.42 21.6328L89.3659 21.3606L89.3651 21.2117L89.3437 21.047L89.4122 20.5726L89.5094 20.3179C89.5317 20.2033 89.5794 20.1412 89.6017 20.0266L89.7602 19.6709L89.9624 19.3653L90.2419 18.9379L90.4743 18.7214L90.6678 18.4914L90.8134 18.3235L91.0387 18.0522L91.0706 18.0108C91.0841 17.9718 91.1343 17.928 91.1478 17.889L91.2776 17.7418L91.4121 17.6312L91.6676 17.4489L91.7019 17.4259L91.7679 17.3614C92.1166 17.0367 92.4788 16.6731 92.8848 16.3595L93.083 16.1662L93.528 15.8662L93.6808 15.7532L93.77 15.7229L94.0032 15.6553C94.2842 15.5256 94.4028 15.4357 94.5262 15.3824L94.917 15.2384L95.1001 15.2146C95.155 15.2074 95.2075 15.182 95.2625 15.1748L95.5371 15.139C95.6103 15.1295 95.7225 15.1335 95.7957 15.1239C95.9104 15.1463 95.97 15.1757 96.009 15.1893L96.2247 15.2729C96.3465 15.3501 96.4476 15.4114 96.5033 15.5531L96.5661 15.7497L96.5939 15.8205L96.6019 16.0243L96.5708 16.2145L96.5286 16.462L96.3264 16.7676L96.1281 16.961L95.9665 17.1496L95.7659 17.3247L95.2437 17.7465L95.1458 17.8523L95.0383 17.8849C94.6371 18.2351 94.2654 18.5255 93.8729 18.8L93.7885 18.8669L93.291 19.1923L93.0745 19.3881L92.6088 19.6722L92.296 19.8432L91.7587 20.0063L91.4499 20.0651L91.2851 20.0866L91.0328 20.0078L90.9907 19.8271L90.9899 19.6782C91.2375 19.2923 91.3927 19.1976 91.6713 19.0496C91.6896 19.0472 91.7215 19.0058 91.7398 19.0034C91.9205 18.9613 92.1513 18.8753 92.332 18.8332L92.5262 18.752L92.7021 18.6733L92.8757 18.5762L93.2617 18.3956L93.6359 18.1234L93.9988 17.9086C94.17 17.7932 94.4048 17.5951 94.576 17.4797L94.6946 17.3898L94.8586 17.2195L95.5328 16.5359C95.5488 16.5152 95.6125 16.4324 95.626 16.3934C95.6395 16.3544 95.6395 16.3544 95.6348 16.3178L95.6595 16.2215L95.7176 15.9533C95.6969 15.9374 95.6786 15.9398 95.6762 15.9215L95.5178 15.849C95.4788 15.8355 95.4582 15.8195 95.4398 15.8219L95.2385 15.8482L95.1127 15.8832L95.0052 15.9158C94.6144 16.0598 94.2172 16.2977 93.9617 16.4799L93.8407 16.5515L93.6353 16.69L93.6035 16.7314L93.2246 16.9669L93.1561 17.013L92.8528 17.2573L92.6411 17.4897L92.3696 17.6926L92.3171 17.7181L92.0528 17.9759C92.0209 18.0173 91.9843 18.0221 91.9525 18.0635C91.9389 18.1025 91.8912 18.1645 91.8752 18.1852L91.634 18.4773L91.5226 18.6221L91.345 18.8314L91.1404 19.1187L90.9836 19.3439L90.8721 19.4888C90.8403 19.5302 90.8156 19.6265 90.7838 19.6679L90.6795 19.8676L90.5043 20.0952ZM102.011 16.9766L101.429 18.2254L101.388 18.3424C101.375 18.3814 101.38 18.418 101.38 18.418L101.268 18.5628L101.029 19.1526L100.935 19.295L101.154 19.5458C101.193 19.5593 101.173 19.5434 101.325 19.7098L101.407 19.7735L101.587 20.0107L101.645 20.1707L101.683 20.3147L101.754 20.4357L101.787 20.5432C101.907 20.7509 101.952 20.9499 102.012 21.1282L102.072 21.3065L102.166 21.5923L102.279 21.894L102.331 22.1479L102.369 22.4408L102.368 22.7202L102.385 22.8483L102.377 23.0728L102.351 23.2996C102.353 23.3179 102.342 23.3752 102.344 23.3935L102.347 23.5607L102.278 23.8862C102.283 23.9228 102.272 23.9801 102.274 23.9984L102.232 24.2459L102.204 24.6033C102.209 24.6399 102.198 24.6972 102.202 24.7338L102.213 24.9559L102.166 25.1668L102.026 25.5202L101.91 25.7773L101.84 25.954L101.723 26.3416L101.669 26.4975L101.674 26.5342L101.592 26.7681L101.563 26.8278L101.555 27.0523L101.496 27.1717L101.185 28.0686L101.06 28.2525L100.932 28.418L100.919 28.457C100.892 28.535 100.828 28.6178 100.801 28.6958L100.595 29.1136L100.581 29.1526L100.45 29.4303L100.423 29.5083L100.216 29.9262L99.9298 30.2986C99.5102 31.0794 99.0063 31.9269 98.527 32.6782L98.5294 32.6965L98.3566 32.9424L98.2618 33.2154L98.1846 33.3372L98.0596 33.521L97.8685 33.7693C97.855 33.8083 97.8072 33.8704 97.7913 33.8911L97.6456 34.059L97.2571 34.6495L97.2094 34.7116L96.6958 35.486C96.6799 35.5066 96.6982 35.5043 96.6664 35.5456C96.6664 35.5456 96.6505 35.5663 96.4984 35.8282L96.367 36.1059L95.949 36.7561L95.7946 36.9997L95.2795 37.4763C95.1474 37.6053 94.9882 37.8122 94.856 37.9411L94.5018 38.0803L94.3187 38.1042L94.0426 37.8423L93.9312 37.5589C93.9718 37.4419 93.967 37.4053 93.8947 37.1354L93.9035 36.6316C93.8964 36.5767 93.9051 36.5011 93.9004 36.4645L93.929 36.2559C93.9394 36.0498 93.9888 35.8572 93.9992 35.651L94.051 35.4767L94.1043 35.1719C94.1243 35.039 94.1983 34.7501 94.266 34.5551C94.3066 34.4381 94.3289 34.3235 94.3417 34.1356L94.3847 34.037C94.3935 33.9613 94.4182 33.865 94.4612 33.7664L94.5153 33.6104C94.5718 33.4727 94.6077 33.3191 94.63 33.2045C94.6499 33.0715 94.6929 32.9728 94.7335 32.8558C94.7765 32.7572 94.7964 32.6242 94.8394 32.5256C94.9119 32.3672 94.9637 32.1929 95.0154 32.0186L95.1612 31.4224L95.213 31.2481C95.2289 31.2275 95.2376 31.1518 95.2353 31.1335L95.3889 30.7412C95.4773 30.5621 95.5243 30.3512 95.5602 30.1976C95.5737 30.1586 95.5737 30.1586 95.5713 30.1403L95.6438 29.9819L95.768 29.6492L95.7975 29.5895L96.0117 28.9472L96.0706 28.8279L96.0634 28.7729L96.1224 28.6536L96.3437 28.0662L96.4074 27.9834C96.4186 27.9261 96.4616 27.8274 96.4751 27.7884L96.6694 27.2791L96.6893 27.1462L96.8366 26.8477L97.1328 26.1203L97.1782 26.0399L97.3208 25.7048L97.3638 25.6061L97.3837 25.4732L97.7046 24.6495L97.8423 24.2778L98.117 23.8138L98.5064 22.9439C98.6083 22.7259 98.7532 22.4091 98.8368 22.1934L98.9698 21.7852L99.0741 21.5854L99.2166 21.2503L99.7652 20.1735L99.8329 19.9785L99.9508 19.7398L99.9826 19.6984C100.053 19.5217 100.039 19.5607 100.05 19.5034L99.8959 19.3187L99.8705 19.2662C99.8498 19.2503 99.7487 19.189 99.7256 19.1547C99.7073 19.1571 99.6866 19.1412 99.6866 19.1412L99.4725 18.927L99.1829 18.7041C99.1001 18.6404 98.894 18.6301 98.6878 18.6197L98.6695 18.6221C98.3145 18.6124 97.9707 18.5455 97.7471 18.2582C97.7081 18.2446 97.6484 18.2152 97.646 18.1969L97.6269 18.0504L97.6468 17.9175L97.7376 17.7567L97.8172 17.6533L97.9518 17.5426L98.1205 17.409L98.2256 17.358L98.5137 17.2833C98.532 17.2809 98.5503 17.2785 98.5846 17.2554C98.9046 17.1393 98.9937 17.109 99.1951 17.0828L99.4076 16.9993L100.118 16.7391L100.386 16.6484L100.797 16.5204L100.992 16.4392L101.152 16.3811L101.291 16.3071L101.54 16.2188L101.613 16.2093C101.632 16.2069 101.632 16.2069 101.648 16.1862C101.729 15.9522 101.805 15.6816 101.889 15.4659L102.052 15.1468L102.265 14.6351L102.385 14.4146L102.91 13.3036C102.919 13.228 102.992 13.0696 103.082 12.9088L103.243 12.5714L103.363 12.3509L103.486 12.1488L103.566 12.0453L103.707 11.8408L103.797 11.68C103.858 11.4301 104.023 11.1293 104.173 10.8491L104.334 10.5117C104.429 10.2387 104.57 10.0342 104.711 9.82964L104.761 9.78587L104.756 9.74925L104.963 9.48026L104.972 9.40465C105.042 9.22797 105.162 9.00751 105.301 8.78468L105.441 8.58015C105.437 8.54353 105.466 8.48384 105.464 8.46554L105.868 7.85433L106.013 7.53757L106.272 7.09428L106.527 6.76322L106.572 6.68284L106.652 6.57938C106.665 6.54038 106.663 6.52207 106.66 6.50377L106.894 6.15678L106.978 5.9411L107.405 5.21528L107.525 4.99483L107.703 4.78553L107.851 4.63592L107.914 4.55315L108.114 4.22924L108.399 3.98733C108.536 3.89502 108.678 3.83933 108.824 3.82026C109.007 3.79641 109.127 3.85533 109.235 3.97155C109.38 4.08301 109.394 4.19285 109.313 4.42684L109.256 4.56453L109.189 4.75952L108.924 5.01736L108.776 5.16697L108.644 5.29589L108.508 5.53703L108.24 5.90709L108.01 6.14185L107.55 6.76021C107.066 7.47488 106.405 8.54768 105.963 9.29419C105.823 9.64756 105.682 9.85209 105.522 10.059C105.397 10.2428 105.275 10.445 105.141 10.7044C104.848 11.1708 104.624 11.591 104.452 11.9858C104.184 12.5047 103.992 13.0323 103.594 13.5496C103.567 13.6276 103.503 13.7104 103.476 13.7884C103.379 14.0431 103.28 14.2795 103.152 14.445L102.901 14.9432L102.588 15.6913L102.507 15.9253L102.541 15.9022C103.053 15.6866 103.531 15.4941 103.892 15.4098L104.112 15.3812L105.397 15.102C105.452 15.0949 105.505 15.0694 105.576 15.0416L105.882 14.9644C105.955 14.9549 106.026 14.927 106.099 14.9175C106.154 14.9103 106.228 14.9008 106.298 14.8729C106.484 14.8674 106.934 14.7529 107.277 14.6709L107.387 14.6566C107.57 14.6328 108.131 14.6528 108.219 14.7531L108.275 14.8948L108.234 15.0118L108.061 15.1088L107.456 15.1875L106.839 15.3052L106.697 15.3609C106.493 15.3688 106.297 15.4317 106.118 15.4922C106.063 15.4993 105.993 15.5271 105.956 15.5319C105.883 15.5415 105.794 15.5717 105.723 15.5995L105.634 15.6298L105.451 15.6536L104.893 15.8008C104.733 15.8588 104.499 15.9264 104.371 15.9431L104.122 16.0314L103.818 16.1269C103.512 16.2041 103.139 16.3457 102.787 16.5032L102.493 16.6719L102.123 16.8318L102.068 16.839L102.011 16.9766ZM101.286 25.5607L101.374 25.3816L101.455 24.9988L101.542 24.522L101.568 24.2952L101.601 23.9744C101.596 23.9378 101.621 23.8415 101.616 23.8049L101.594 23.4913L101.636 23.2438C101.631 23.2072 101.656 23.1108 101.651 23.0742L101.7 22.7328C101.673 22.5314 101.663 22.3093 101.639 22.1263C101.613 21.9249 101.569 21.7259 101.54 21.5062L101.479 21.3279L101.435 21.1289L101.335 20.9371L101.308 20.8663L101.137 20.5534L101.049 20.4531L101.008 20.4213L100.895 20.2684L100.685 20.0909L100.6 20.0089L100.56 20.1259C100.544 20.1466 100.546 20.1649 100.546 20.1649L100.471 20.305L100.345 20.6193L100.27 20.7594L100.17 20.9958L100.125 21.0762L99.7466 21.8888L99.4019 22.5294C99.2952 22.7109 99.1726 22.913 99.0571 23.1701L98.9098 23.4685C98.8374 23.6269 98.7601 23.7487 98.6765 23.9644L98.6383 24.0997L98.5635 24.2397C98.5475 24.2604 98.5475 24.2604 98.5499 24.2787L98.3915 24.6345L98.2784 24.9099L97.9344 25.6994L97.811 26.1809L97.6271 26.4841L97.6318 26.5207L97.5371 26.7937L97.4805 26.9314L97.1938 27.7321L97.0696 28.0647L96.9908 28.317L96.9526 28.4523L96.7312 29.0397L96.5146 29.6637L96.4588 29.9502L96.2932 30.251C96.2478 30.3314 96.2072 30.4484 96.1714 30.602L96.0742 30.8567L95.6251 32.1253C95.5686 32.263 95.4762 32.5543 95.4539 32.6689L95.3694 33.164C95.0827 33.9646 95.0341 34.7343 94.9647 35.488C94.9455 35.7698 94.9264 36.0516 94.8913 36.354C94.8961 36.3906 94.8825 36.4296 94.8873 36.4662L94.9056 36.4638L95.0195 36.3373L95.9318 35.1945L96.0321 35.107L96.1619 34.9598L96.5815 34.179L96.7861 33.8917L96.9063 33.6713L97.4835 32.8141L97.9994 32.0581L98.2358 31.7294L98.5352 31.1691L98.7334 30.9758L99.0264 30.5094L99.192 30.2086L99.5598 29.6021L99.9635 28.8421L100.237 28.2292L100.294 28.0916L100.409 27.8345L100.511 27.6164C100.568 27.4787 100.622 27.3227 100.724 27.1047L100.846 26.7537C100.841 26.7171 100.875 26.694 100.873 26.6757L100.97 26.421L101.128 25.9164L101.152 25.8201L101.286 25.5607ZM100.173 18.4448L100.199 18.4974L100.436 18.7457L100.628 18.3669L100.691 18.1353L100.857 17.8345L101.21 17.1182L100.856 17.2574L100.31 17.4961L100.132 17.5566L100.029 17.6258L99.7983 17.7117L99.6431 17.8064L99.5014 17.8621C99.5475 17.9305 99.6032 18.0722 99.6605 18.0834L99.6812 18.0993C99.9224 18.2355 100.067 18.3469 100.173 18.4448ZM110.883 17.6269L111.183 17.0666L111.303 16.8461L111.428 16.6623L111.446 16.6599L111.603 16.4347L111.649 16.3543L111.63 16.3567L111.418 16.4402L110.931 16.7084L110.753 16.7688L110.228 17.1723L110.094 17.2829L109.973 17.3545L109.854 17.4444L109.459 17.7006L109.019 18.0372L108.898 18.1088L108.588 18.2982L108.572 18.3189L108.335 18.4988L108.264 18.5266C108.161 18.5958 108.063 18.7017 107.961 18.7709L107.86 18.8584L107.694 19.0104L107.589 19.0614C107.573 19.082 107.468 19.133 107.449 19.1354C107.331 19.2253 107.212 19.3152 107.096 19.4234L106.772 19.6518L106.607 19.6733L106.4 19.7934L106.269 19.7918C106.237 19.8332 106.198 19.8196 106.111 19.8682C106.077 19.8912 106.032 19.9716 106.032 19.9716L105.682 20.1475L105.557 20.1825L105.262 20.3512L105.155 20.3838L105.024 20.3822C104.663 20.4665 104.36 20.4314 104.212 20.1528C104.087 19.9084 104.136 19.567 104.224 19.2391L104.282 18.9708L104.375 18.8284C104.375 18.8284 104.391 18.8077 104.388 18.7894L104.506 18.5506L104.611 18.3509L104.765 18.1073L104.956 17.859L105.017 17.758L105.165 17.6084L105.343 17.3991L106.087 16.5388L106.317 16.304L106.429 16.1592L106.625 15.9475L106.659 15.9244L106.793 15.8138L107.117 15.4366L107.394 15.1398L107.508 15.0132L107.764 14.831L107.78 14.8103L107.935 14.7156L107.988 14.6902C108.04 14.6647 108.088 14.6026 108.264 14.5239L108.88 14.1085L109.035 14.0138L109.14 13.9629C109.248 13.9303 109.332 13.8634 109.439 13.8308L109.506 13.7663L109.686 13.7242L109.791 13.6733L109.915 13.62L110.189 13.5842L110.599 13.5866C110.62 13.6026 110.677 13.6137 110.695 13.6113L110.918 13.7499L110.96 13.9306L110.945 14.1001C110.909 14.2537 110.696 14.6166 110.307 14.6301C110.27 14.6348 110.218 14.6603 110.181 14.6651L109.467 14.7581L109.341 14.7931L109.236 14.844L109.008 14.9482L108.709 15.0803L108.327 15.2975L107.885 15.6158L107.8 15.6827L107.584 15.8784L106.839 16.5898L106.791 16.6519L106.65 16.8565L106.507 17.0427L106.388 17.1326L106.258 17.2798L106.226 17.3212L106.062 17.4915L106.067 17.5281L105.913 17.7716L105.719 18.0016L105.722 18.0199L105.629 18.1624L105.567 18.2635L105.538 18.3232C105.54 18.3415 105.527 18.3805 105.527 18.3805L105.431 18.5046L105.37 18.6057L105.204 18.9065L105.125 19.1588L105.085 19.2758L105.008 19.3976L104.962 19.478L104.949 19.517L104.965 19.6451C105.089 19.5918 105.152 19.509 105.276 19.4557L105.436 19.3977L105.698 19.2704L105.824 19.2354L106.427 18.859L106.511 18.7921L106.664 18.6791L106.892 18.5749L106.995 18.5057C107.134 18.4317 107.137 18.45 107.424 18.2264L107.54 18.1182L107.693 18.0052L107.741 17.9431L107.848 17.9105L108.054 17.772L108.191 17.6797L108.309 17.5898L108.77 17.2691L108.886 17.1609L109.402 16.8331L109.473 16.8052L109.765 16.6182L109.964 16.4248L110.237 16.2402L110.319 16.1551L110.454 16.0445L110.536 15.9593L110.736 15.7842L110.99 15.5837L111.54 15.3816L111.797 15.3483L112.003 15.3586L112.2 15.4446L112.221 15.4606C112.317 15.4852 112.437 15.5442 112.57 15.7129L112.585 15.8228L112.573 15.8801L112.515 15.9995L112.502 16.1873L112.351 16.3186L112.288 16.4014L112.154 16.6608L112.024 16.808L111.697 17.2975L111.667 17.3572L111.518 17.6373L111.477 17.7543L111.452 17.8506C111.441 17.9079 111.405 17.9127 111.407 17.931C111.462 17.9238 111.496 17.9008 111.569 17.8912L111.75 17.8491L111.823 17.8395L112.054 17.7536L112.251 17.6908L112.356 17.6398L112.587 17.5539L113.204 17.2874L113.29 17.2389L113.45 17.1808L113.661 17.0789L113.816 16.9843L113.887 16.9564L113.953 16.8919L114.572 16.6437L114.73 16.5673L114.777 16.5053L115.641 16.1321L115.801 16.074L116.153 15.9165C116.171 15.9141 116.281 15.8998 116.302 15.9157C116.359 15.9269 116.471 15.9309 116.489 15.9285L116.53 16.2397L116.368 16.4283L116.167 16.4546L115.902 16.5636L115.697 16.702L115.587 16.7163L115.34 16.8229L115.235 16.8739L114.822 17.1325L114.53 17.3195L114.178 17.477L113.794 17.6759L113.689 17.7268L113.618 17.7547L113.486 17.8836L113.328 17.96L113.223 18.0109L113.089 18.1215L113.02 18.1677L112.587 18.4104L112.45 18.5027L111.979 18.7501L111.787 18.8496C111.753 18.8726 111.687 18.9371 111.669 18.9395L111.404 19.0485L111.166 19.0795L110.999 19.0826L110.902 19.0579L110.769 19.038L110.581 18.8764L110.557 18.6934C110.527 18.6042 110.494 18.4967 110.521 18.4187L110.586 18.2054L110.582 18.1688L110.718 17.9277L110.761 17.829L110.883 17.6269ZM115.833 16.6284L115.896 16.5457C115.896 16.5457 115.912 16.525 115.91 16.5067L116.009 16.2703L116.109 16.0339L116.272 15.7148L116.603 14.9643L116.675 14.8059L116.721 14.7255L116.91 14.1795L117.172 13.4752C117.197 13.3789 117.239 13.1313 117.265 12.9045C117.28 12.735 117.245 12.6092 117.233 12.5177C117.214 12.3712 117.202 12.2797 117.225 12.1651C117.258 11.9932 117.475 11.7974 117.676 11.7712C118.152 11.7092 118.373 11.9782 118.305 12.4526C118.265 12.7184 118.181 12.9341 118.1 13.1681L117.85 13.964L117.703 14.2624L117.637 14.4757L117.57 14.6707L117.356 15.0336L117.337 15.1666L117.241 15.2907C117.15 15.4515 117.035 15.7085 116.962 15.8669L116.724 16.3261C116.7 16.4224 116.668 16.6127 116.639 16.6724L116.521 16.9111L116.555 16.888L116.765 16.6374L117.184 16.136L117.229 16.0556L117.256 15.9776L117.523 15.7381L117.586 15.6553L117.835 15.4182L117.885 15.3744L118.32 15.0012L118.391 14.9733L118.663 14.7704C118.715 14.745 118.763 14.6829 118.815 14.6574C118.955 14.5834 119.249 14.4147 119.38 14.4164L119.453 14.4068L119.858 14.3727L120.138 14.5223L120.334 14.7389L120.43 15.0429L120.451 15.2077L120.457 15.3932L120.449 15.6176L120.447 15.7481L120.471 15.9312L120.421 16.4032C120.428 16.4581 120.414 16.4971 120.421 16.552L120.477 16.6937L120.507 16.7829C120.533 16.8354 120.584 16.9405 120.604 16.9564L120.635 17.0455L120.724 17.1642C120.745 17.1801 120.727 17.1825 120.745 17.1801L120.919 17.2318C121.142 17.2215 121.377 17.1722 121.681 17.0768L121.992 16.8874L122.117 16.8524C122.188 16.8245 122.291 16.7553 122.343 16.7299L122.488 16.6925L122.748 16.5469L123.268 16.2556L123.323 16.2485L123.62 16.0981L124.205 15.7241L124.421 15.5284L124.51 15.4981L124.887 15.2443L125.003 15.1361L125.133 14.9888L125.286 14.8758L125.767 14.5711L126.342 14.1239L126.442 14.0363L126.661 13.8589L126.748 13.8103L126.964 13.6146L127.166 13.5883L127.288 13.6656L127.354 13.75L127.344 13.9561L127.178 14.1081L126.877 14.3707C126.678 14.5641 126.51 14.6978 126.339 14.8131L126.09 15.0503L125.917 15.1474L125.666 15.3662L125.461 15.5047C125.326 15.6153 125.137 15.733 124.897 15.8946L124.626 16.0975L123.872 16.6052L123.836 16.6099C123.77 16.6744 123.667 16.7436 123.619 16.8057L123.382 16.9855L123.135 17.0921C123.065 17.12 122.983 17.2051 122.914 17.2513L122.759 17.346L122.562 17.4088L122.347 17.4741L122.222 17.509L122.153 17.5552L122.082 17.583L122.03 17.6085C121.995 17.6316 121.925 17.6594 121.815 17.6737L121.655 17.7318L121.479 17.8106L121.28 17.8551L121.058 17.8654L120.953 17.9163L120.767 17.9219C120.566 17.9481 120.373 17.8987 120.199 17.847L120.181 17.8494L120.103 17.8223C119.908 17.7546 119.735 17.5723 119.652 17.3598C119.621 17.2706 119.607 17.1608 119.59 17.0326L119.562 16.8129L119.606 16.5837L119.666 16.185L119.766 15.5204C119.761 15.4838 119.77 15.4082 119.765 15.3715C119.759 15.1861 119.704 15.0444 119.589 15.0221C119.534 15.0293 119.445 15.0595 119.392 15.0849C119.392 15.0849 119.379 15.1239 119.326 15.1494L119.208 15.2393L119.037 15.3547L118.881 15.4494L118.649 15.6658L118.562 15.7144L118.403 15.9213L118.241 16.1099L118.041 16.285C117.977 16.3677 117.852 16.5516 117.786 16.616L117.636 16.7473L117.501 16.858L117.453 16.92L117.228 17.1914L117.194 17.2145L117.059 17.3251L116.977 17.4102L116.929 17.4723L116.727 17.7779L116.529 17.9713L116.245 18.362L115.769 19.0011L115.674 19.1252L115.357 19.4085L115.195 19.4483C114.968 19.422 114.873 19.2668 114.797 19.1092C114.759 18.9651 114.747 18.7247 114.947 18.4008L115.048 18.1828L115.366 17.6201L115.45 17.4044L115.586 17.1633L115.613 17.0853L115.833 16.6284ZM130.759 13.4367L130.764 13.4733C130.755 13.549 130.763 13.6039 130.661 13.9708C130.65 14.0281 130.63 14.161 130.603 14.239L130.454 14.5191L130.271 14.6918L130.128 14.8781L129.987 15.0826L129.823 15.2529C129.55 15.5863 129.181 15.8951 128.793 16.2062L128.759 16.2293L128.542 16.4251L128.437 16.476L128.387 16.5198L128.237 16.6511L128.125 16.7959L128.018 16.8285C128.004 16.8675 127.956 16.9296 127.956 16.9296L127.801 17.0243L127.749 17.0497L127.554 17.1309L127.431 17.1842L127.36 17.212C127.344 17.2327 127.312 17.2741 127.294 17.2765L127.242 17.302C126.929 17.473 126.739 17.5908 126.561 17.6513L126.513 17.7133L126.406 17.746L126.154 17.816L126.026 17.8326L125.676 17.8596C125.511 17.8811 125.362 17.8819 125.25 17.8779C125.156 17.8715 125.044 17.8675 124.831 17.8022L124.792 17.7887C124.597 17.721 124.332 17.5506 124.279 17.4272L124.205 17.2879L124.165 17.1255L124.191 16.7499L124.29 16.5135L124.424 16.254L124.997 15.5091L125.191 15.2791L125.355 15.1088L125.418 15.0261L125.783 14.6807L125.799 14.66C125.815 14.6393 125.863 14.5772 125.897 14.5542L126.077 14.3632L126.159 14.278L126.555 13.8913L126.667 13.7464L126.722 13.7393L126.888 13.5873L127.073 13.4329L127.292 13.2555L127.624 12.9515L127.709 12.8846L127.793 12.8178L127.519 12.8535C127.482 12.8583 127.448 12.8814 127.393 12.8885C127.267 12.9235 127.105 12.9633 126.94 12.9848L126.485 13.0627L126.258 13.0364L126.099 12.9639L125.929 12.7999L125.919 12.5779L126.061 12.2428L126.287 12.1203L126.502 12.055L126.738 12.0057L126.873 12.044L127.192 12.0583C127.448 12.025 127.67 12.0147 127.931 12.0179L128.206 11.9821L128.483 11.9647L128.823 11.8644L128.899 11.8732L129.15 11.8032C129.185 11.7801 129.255 11.7523 129.271 11.7316L129.472 11.5565L129.609 11.4642L129.627 11.4618L129.764 11.3695L129.927 11.3297L130.071 11.2924C130.178 11.2598 130.359 11.2176 130.489 11.2192L130.599 11.2049L130.695 11.2296C130.771 11.2384 130.87 11.2814 130.929 11.3108L131.359 11.1804L131.572 11.0968L131.844 11.0428L132.125 10.9131L132.269 10.8757L132.45 10.8335L132.816 10.7858L132.96 10.7484L133.2 10.7358C133.255 10.7286 133.328 10.7191 133.399 10.6912L133.582 10.6674C133.637 10.6602 133.69 10.6348 133.745 10.6276L133.85 10.5767L133.925 10.5854L134.035 10.5711L134.143 10.5385L134.271 10.5218L134.475 10.5139L134.655 10.4718L134.788 10.4917L134.843 10.4845L134.992 10.4838L135.086 10.4901C135.235 10.4894 135.425 10.5204 135.672 10.5627L135.711 10.5762L135.785 10.5667L135.961 10.6367L135.943 10.6391C136.113 10.6543 136.117 10.6909 136.159 10.7227C136.198 10.7363 136.216 10.7339 136.234 10.7315L136.503 10.9385L136.596 11.0754L136.643 11.2927L136.63 11.4805L136.562 11.6755L136.431 11.9533C136.374 12.091 136.342 12.1324 136.295 12.1944L136.199 12.3186L135.987 12.4021L135.874 12.3981L135.827 12.1808L135.834 12.0869L135.854 11.954L135.908 11.798L136.007 11.5616L136.05 11.3141L136.042 11.2592L135.886 11.205L135.746 11.1302L135.462 11.0927C135.048 11.0537 134.553 11.118 134.279 11.1538L134.004 11.1896L133.787 11.2365C133.695 11.2484 133.624 11.2763 133.554 11.3041C133.501 11.3296 133.428 11.3391 133.336 11.351C132.538 11.5109 131.98 11.658 131.424 11.8235L131.283 11.8792L131.217 11.9436L130.866 11.9706L130.507 12.0733L130.004 12.2132L129.883 12.2849L129.984 12.3462L130.023 12.3597L130.182 12.4322L130.515 12.7052L130.61 12.8604L130.73 13.0682L130.759 13.4367ZM129.653 14.2325L129.703 14.1887C129.826 13.9866 129.88 13.8306 129.934 13.6746L129.92 13.5647L129.967 13.3538C129.96 13.2989 129.973 13.2599 129.964 13.1867C129.941 13.1524 129.851 13.0338 129.848 13.0155L129.828 12.9996L129.687 12.9248L129.529 12.8523L129.414 12.83L129.3 12.8077L129.063 12.7082C129.063 12.7082 129.027 12.7129 129.006 12.697L128.89 12.8052C128.705 12.9596 128.457 13.1968 127.912 13.5843L127.44 13.9623L127.239 14.1373L127.155 14.2042C127.036 14.2941 126.922 14.4206 126.804 14.5106L126.706 14.6164L126.489 14.8122L126.312 15.0215L126.127 15.1758L126.013 15.3024L125.799 15.5164C125.767 15.5578 125.671 15.682 125.658 15.721L125.522 15.9621L125.397 16.146C125.322 16.286 125.25 16.4444 125.211 16.5797C125.195 16.6004 125.2 16.637 125.2 16.637L125.175 16.7333L125.176 16.8822L125.165 16.9395L125.179 17.0493L125.304 17.1448L125.402 17.1878L125.439 17.1831C126.011 17.1458 126.132 17.0741 126.692 16.7965C126.973 16.6668 127.233 16.5212 127.459 16.3986L127.493 16.3755L127.801 16.1679L128.113 15.8479L128.242 15.8313L128.709 15.4167L128.791 15.3315C128.923 15.2026 129.05 15.0371 129.18 14.8898L129.225 14.8094L129.387 14.6208L129.53 14.4346C129.528 14.4163 129.542 14.3773 129.542 14.3773L129.653 14.2325Z" fill="white"/>
</svg>
