<svg width="89" height="36" viewBox="0 0 89 36" fill="none" xmlns="http://www.w3.org/2000/svg">
<path d="M6.73969 22.9663L7.43697 22.7452C7.90102 22.5917 8.18916 22.5169 8.49561 22.4397L9.35765 22.1971L10.8095 21.766L11.6055 21.5878C12.3441 21.3985 13.1377 21.2021 13.8971 21.0287L13.9154 21.0263C13.9472 20.9849 13.9767 20.9252 14.0037 20.8472L14.1717 20.5647L14.315 20.3785L14.5332 20.0522L15.0379 19.3534L15.2879 18.9858L15.4607 18.7399L16.0793 17.9146L16.2432 17.7443L16.3929 17.4641L16.6907 17.0344L17.0617 16.5951L17.1827 16.5235L17.3307 16.3739L18.1746 15.2772L18.587 14.8698L18.8553 14.4997L19.0583 14.3429L19.1379 14.2395L19.4459 14.0318L19.6895 13.758L19.8671 13.5487L19.9674 13.4612L20.1178 13.3299L20.25 13.201L21.2594 12.2317L21.7036 11.7829L22.2576 11.3198L22.3874 11.1725L22.588 10.9975L23.0195 10.7365L23.5027 10.3012C23.7009 10.1078 24.3265 9.76565 24.4316 9.71473L24.6895 9.55081C24.6895 9.55081 24.7421 9.52535 24.758 9.50466L24.8973 9.43066L25.1942 9.28028L25.4314 9.10045L25.5389 9.06783C25.7148 8.98906 25.8859 8.87368 26.0618 8.79492L26.3086 8.6883L26.2903 8.69069C26.6238 8.53554 27.1102 8.26739 27.6936 8.17278L27.8218 8.15609C27.8767 8.14893 27.9292 8.12347 27.9658 8.1187L28.3869 8.06386C28.6185 8.12678 28.5564 8.07901 28.5747 8.07662C28.6113 8.07185 28.7029 8.05993 28.7602 8.07109C28.7992 8.08462 28.9297 8.08624 28.9663 8.08147L29.0992 8.10139L29.3309 8.16431L29.4478 8.20492L29.6134 8.3323C29.6524 8.34584 29.6707 8.34345 29.689 8.34107L29.8481 8.56237L29.8784 8.65151L29.9269 8.73828L29.9874 8.91658L30.1099 9.14265L30.1911 9.33687C30.2746 9.5494 30.3629 9.79854 30.3254 10.0827C30.3103 10.2522 30.2291 10.4862 29.9481 10.6159C29.8406 10.6485 29.7101 10.6469 29.5907 10.588C29.5079 10.5243 29.3814 10.4104 29.3329 10.3237C29.2819 10.2186 29.2374 10.0196 29.2088 9.79993C29.2064 9.78162 29.2152 9.70601 29.2104 9.6694C29.2239 9.6304 29.2192 9.59379 29.1961 9.55956C29.1889 9.50464 29.1428 9.43618 29.1173 9.38364L29.0688 9.29688C29.0386 9.20773 29.0131 9.15519 28.9924 9.13927C28.8706 9.06204 28.6757 8.99435 28.4854 8.96328L28.3756 8.97759L28.0572 8.9632C27.9657 8.97513 27.8535 8.97113 27.7595 8.96474C27.6473 8.96075 27.4412 8.95036 27.4412 8.95036C27.3679 8.9599 27.2239 8.99728 27.1005 9.05059L26.8171 9.16197L26.5314 9.25505C26.4788 9.28051 26.3921 9.32904 26.3371 9.3362L26.1612 9.41497L26.0243 9.50727L25.5403 9.79372L25.4536 9.84226C25.0723 10.0595 25.038 10.0826 24.4928 10.4701C24.445 10.5322 24.3129 10.6611 23.918 10.9173L23.6466 11.1202L23.5574 11.1504C23.4866 11.1783 23.3863 11.2658 23.3178 11.312L23.2677 11.3557L22.9349 11.6597C22.7001 11.8579 22.4629 12.0377 22.2463 12.2335L21.7544 12.7444L21.5331 12.9035L21.4535 13.007L21.0021 13.4009L21.018 13.3802L20.9519 13.4447L20.854 13.5505L20.4305 14.0153L20.3804 14.059L20.0683 14.3789L19.9298 14.6018L19.6177 14.9217C19.5675 14.9655 19.472 15.0896 19.4561 15.1103L19.2419 15.3244L19.0867 15.4191L18.7611 15.778L18.4108 16.2332L18.3105 16.3207L18.1035 16.5897L17.6601 17.1874L17.4985 17.376L17.3735 17.5598L16.9842 18.0015L16.7135 18.3532L16.6156 18.4591L16.6315 18.4384L16.4859 18.6063L15.8991 19.3902L15.5743 19.898L15.4127 20.0866L15.1332 20.5139L14.9812 20.7758L15.1252 20.7384L15.1778 20.7129L15.2669 20.6827L15.4866 20.6541L15.7151 20.5499L16.8429 20.3471L16.9002 20.3582C17.1884 20.2835 17.3372 20.2827 17.4471 20.2684C17.5386 20.2565 17.6301 20.2445 17.939 20.1857L18.204 20.0767L18.6959 19.994L19.3231 19.9495C19.8699 19.8597 20.5998 19.746 21.149 19.6745L21.2016 19.649L21.5335 19.6244L22.2865 19.5449L23.4398 19.3947L23.6619 19.3844L24.4307 19.2842L24.5931 19.2445L24.6504 19.2556C25.3095 19.1698 25.7719 19.1468 26.1269 19.1564C26.1818 19.1492 26.2757 19.1556 26.3307 19.1485L26.5527 19.1382L26.7836 19.0522L26.9666 19.0284L27.0239 19.0395L27.1752 19.0571L27.3033 19.0404L27.7108 19.0245L27.8804 19.0397L28.0865 19.0501L28.3452 19.035L28.7368 19.0398L28.9382 19.0136L29.6505 19.0511L29.6712 19.0671L29.8543 19.0432C29.9092 19.0361 29.9458 19.0313 30.0214 19.0401L30.2777 19.0067L30.4106 19.0266L30.5046 19.033L32.3662 19.0325L32.5755 19.21L32.5628 19.3979C32.4513 19.5427 32.3964 19.5499 32.3415 19.557C31.9706 19.5681 31.6156 19.5585 31.3362 19.5576L31.0362 19.5409L30.9995 19.5457C30.9629 19.5504 30.9263 19.5552 30.9056 19.5393L29.5088 19.535C29.4355 19.5446 29.3416 19.5382 29.2867 19.5454L28.9341 19.554C28.4693 19.5587 28.4669 19.5404 28.0984 19.5698C28.0068 19.5817 27.7871 19.6104 27.6017 19.6159C27.5285 19.6254 27.3271 19.6517 27.2332 19.6453C27.1233 19.6596 26.9379 19.6651 26.9013 19.6699L26.5168 19.72L26.3178 19.7645L26.0591 19.7796C25.8028 19.813 25.7272 19.8042 25.654 19.8137C25.5808 19.8233 25.5235 19.8121 25.2306 19.8503L24.4569 19.9138L24.3471 19.9281L23.6307 20.0028L23.5209 20.0171L23.3036 20.0641L22.9717 20.0887L22.1112 20.2008L22.0038 20.2334L21.8549 20.2341L21.7475 20.2668L21.2142 20.3176L21.0701 20.355L20.8114 20.3701L20.5575 20.4218L20.3562 20.448C20.0449 20.4885 19.7361 20.5474 19.4456 20.6038L19.2649 20.646L18.9744 20.7024L18.8645 20.7167C18.137 20.8487 17.3936 21.0014 16.6685 21.1517L16.5769 21.1637C16.5061 21.1915 16.378 21.2082 16.2864 21.2201L16.2156 21.248L14.443 21.6464C14.427 21.6671 14.3769 21.7109 14.3769 21.7109L14.2129 21.8812L13.7949 22.5314L13.7432 22.7057L13.5728 22.9699L13.4478 23.1538L13.3483 23.3901L13.0123 23.9552L12.826 24.2401L12.3562 25.0646L11.9756 25.8589L11.7893 26.1438C11.744 26.2242 11.7057 26.3595 11.658 26.4215L11.5441 26.5481C11.4828 26.6492 11.4104 26.8075 11.3697 26.9245C11.361 27.0001 11.318 27.0988 11.3092 27.1744L11.0512 27.7666L10.9541 28.0212L10.9111 28.1199L10.8282 28.4845L10.6698 28.8402C10.661 28.9158 10.618 29.0145 10.6093 29.0901L10.4102 29.5629L10.3409 29.8884L10.2326 30.2004L10.2509 30.198C10.2286 30.3126 10.1514 30.4344 10.1291 30.549L10.0056 31.0305L9.97452 31.2207L9.82961 31.5375C9.82561 31.6497 9.78977 31.8033 9.78338 31.8972L9.48078 32.7186L9.47433 33.2407L9.39626 33.6419L9.34287 33.9467L9.23696 34.277L9.13743 34.5134L9.0992 34.6487L8.96544 34.9081L8.82214 35.0943L8.68999 35.2233L8.56422 35.2583L8.50692 35.2471L8.374 35.2272L8.18778 35.0839L8.13686 34.9788L8.10424 34.8714L8.09793 34.5371L8.15608 34.2688L8.24131 33.9226L8.43168 33.0973L8.51852 32.6205L8.67382 32.0976L8.74627 31.9392L8.80681 31.6893L8.94695 31.336L9.00349 31.1983L9.1301 30.8839L9.21132 30.6499L9.24955 30.5146L9.3897 30.1612L9.38731 30.1429L9.48446 29.8883C9.80936 28.9523 10.2051 27.9885 10.5515 27.2173L10.6255 26.9284L10.7752 26.6482L10.8819 26.4668C10.9385 26.3291 11.0316 26.1866 11.0881 26.0489L11.2832 25.6884L11.4098 25.3741L11.7753 24.7493C11.7729 24.731 11.7888 24.7103 11.8047 24.6896L12.6646 23.1441L12.8254 22.8066L13.1319 22.3013L13.2362 22.1015L13.3636 21.936C13.3063 21.9248 13.2331 21.9343 13.1782 21.9415C12.8693 22.0003 12.5836 22.0934 12.2931 22.1499L12.0805 22.2334L11.4812 22.3487L11.2113 22.4211L10.3469 22.6454L10.2761 22.6733C10.0954 22.7154 9.95609 22.7894 9.7754 22.8316L8.83376 23.1776L8.34739 23.4458L8.27655 23.4736L8.04095 23.5229L7.84672 23.6041L7.47897 23.7823C7.33967 23.8563 6.91461 24.0234 6.64716 24.1141L5.83128 24.4251L5.70551 24.4601L4.99232 24.702L4.4168 25.0003L4.02198 25.2566L3.50139 25.5478L3.41224 25.578L3.06041 25.7356L2.67835 25.8039L2.39897 25.8031L1.97238 25.6725L1.818 25.4878L1.78061 25.3437L1.76869 25.2522L1.7703 25.1217L1.86107 24.9609L2.02268 24.7723L2.12536 24.7031L2.34666 24.5439L2.78764 24.3562L3.26285 24.1453L3.56453 24.0315L3.72452 23.9735L4.13604 23.8454L4.34618 23.7436L4.6001 23.6919L4.82855 23.5876L4.93839 23.5733L4.95431 23.5526L5.20345 23.4643L5.37937 23.3856L5.57597 23.3227L5.72004 23.2853L5.91188 23.1859L6.11326 23.1596L6.73969 22.9663ZM41.7706 17.7144L41.7945 17.8975C41.781 17.9365 41.7857 17.9731 41.7881 17.9914C41.8048 18.1196 41.8191 18.2294 41.6782 18.4339C41.6033 18.574 41.4099 18.804 41.1576 18.7252L40.9443 18.6598L40.6753 18.4529L40.622 18.3295L40.5735 18.2427L40.5544 18.0963L40.5767 17.9816L40.5369 17.8193L40.4884 17.7325L40.4287 17.703L40.3276 17.6417L40.213 17.6194C40.1398 17.629 40.0825 17.6178 40.0093 17.6274L39.5882 17.6822C39.4943 17.6758 39.4234 17.7037 39.0509 17.8453L38.7882 17.9726L37.8904 18.3688L37.6301 18.5144L37.3928 18.6943L37.2535 18.7683L37.041 18.8518L36.7123 19.0436L36.6255 19.0921L36.233 19.3666L36.0006 19.5831L35.9369 19.6658L35.6973 19.8274L35.5994 19.9332L35.5333 19.9977L35.433 20.0852L35.3852 20.1473L35.265 20.3677L35.1146 20.499L35.0509 20.5818L34.8662 20.7362C34.8208 20.8166 34.7778 20.9152 34.785 20.9702L34.8311 21.0386L34.8956 21.1047L35.1853 21.3276L35.2839 21.3706L35.4813 21.4566C35.5569 21.4654 35.6556 21.5084 35.7312 21.5171L35.9262 21.5848L36.0639 21.6414C36.1029 21.6549 36.1968 21.6613 36.2334 21.6565L36.4125 21.7449L36.8367 21.8572C36.8916 21.85 36.988 21.8747 37.0429 21.8676L37.249 21.878L37.4233 21.9297L37.4599 21.925L37.5403 21.9703L37.9025 22.0349C37.9574 22.0277 38.0147 22.0389 38.0696 22.0317L38.1683 22.0747C38.2988 22.0763 38.4524 22.1122 38.6013 22.1114C38.6745 22.1019 38.8074 22.1218 38.8806 22.1123L39.2953 22.1513L39.7243 22.3002L39.9431 22.551L39.9924 22.7866L39.9908 22.9171L39.8818 23.0803L39.7361 23.2482L39.4599 23.4145L39.3683 23.4264L39.268 23.514L39.0213 23.6206L38.9823 23.607L38.8063 23.6858L38.3351 23.7844L37.5185 23.9466L37.2805 23.9776L36.553 24.1096L36.3333 24.1383L36.0977 24.1876L35.8207 24.205L35.6082 24.2886L35.297 24.3291L34.8162 24.3545L34.5233 24.3926L34.3426 24.4348L34.3609 24.4324L34.0386 24.5303L33.947 24.5422L33.6979 24.6305L33.5514 24.6496C33.444 24.6822 33.3413 24.7514 33.2338 24.784L33.003 24.8699L32.7857 24.9169L32.5867 24.9614L32.1433 25.1309L32.0542 25.1611L31.8027 25.2311L31.7294 25.2406L31.661 25.2868L31.5352 25.3218L31.3466 25.1602L31.2933 25.0368L31.3498 24.8991L31.5074 24.8227L31.681 24.7256L32.1243 24.5562L32.3576 24.4886L32.6067 24.4003L32.8216 24.335L33.308 24.0669L33.546 24.0359L33.6876 23.9802L33.9646 23.9627L34.1636 23.9182L34.3053 23.8625L34.685 23.7758L34.9914 23.6987L35.2637 23.6446L35.6433 23.5579L35.8996 23.5245L36.0413 23.4688L36.0986 23.48L36.2268 23.4633C36.2817 23.4561 36.2793 23.4378 36.3342 23.4307C36.3501 23.41 36.4552 23.3591 36.4894 23.336L36.9607 23.2374L37.2257 23.1284L37.8665 23.0449L37.9715 22.994L38.1546 22.9701L38.001 22.9343L37.7877 22.869L37.6158 22.8355C37.5609 22.8427 37.4829 22.8156 37.4462 22.8204L37.3523 22.814L36.8453 22.638C36.8087 22.6428 36.7857 22.6085 36.7673 22.6109L36.593 22.5592L36.3018 22.4668L36.1091 22.4174C36.0518 22.4063 36.0654 22.3673 35.9898 22.3585C35.8752 22.3362 35.8338 22.3043 35.5313 22.2693C35.3984 22.2493 35.3204 22.2223 35.1986 22.145L35.1596 22.1315C35.123 22.1363 35.0657 22.1251 35.0474 22.1275L34.8755 22.094C34.8389 22.0988 34.7816 22.0877 34.7633 22.09L34.6208 21.9969L34.5404 21.9515L34.5611 21.9674L34.3614 21.8631L34.0924 21.6561L34.0088 21.4436L33.9945 21.3338L33.9938 21.1849C34.0002 21.091 34.0432 20.9923 34.1156 20.8339L34.1451 20.7743C34.1427 20.756 34.1721 20.6963 34.1698 20.678L34.3537 20.3747L34.5424 20.1081L34.6673 19.9243L34.7334 19.8598C34.7493 19.8391 34.7923 19.7405 34.79 19.7221L34.9428 19.6092L34.9906 19.5471L35.1888 19.3537L35.426 19.1739L35.6975 18.9709L35.7818 18.9041L36.0374 18.7219L36.0533 18.7012L36.1743 18.6296L36.2403 18.5651L36.5301 18.3598L36.6376 18.3272L37.0212 18.1283L37.1765 18.0336L37.3181 17.9779L37.7934 17.7671L38.0926 17.635L38.4763 17.4361L38.5997 17.3828L38.6889 17.3525C38.6889 17.3525 38.7072 17.3501 38.7597 17.3247L38.938 17.2642C39.0431 17.2133 39.1505 17.1807 39.258 17.1481L39.7451 17.0288L40.4408 16.9382L40.8164 16.9637L40.9287 16.9677L41.1762 17.0099L41.4357 17.1437L41.5829 17.2734L41.629 17.3419L41.7102 17.5361L41.7706 17.7144ZM47.8496 20.4227L48.149 19.8624L48.2692 19.6419L48.3942 19.4581L48.4125 19.4557L48.5693 19.2305L48.6147 19.1501L48.5964 19.1525L48.3839 19.236L47.8975 19.5042L47.7192 19.5646L47.1946 19.9681L47.0601 20.0787L46.9391 20.1503L46.8205 20.2402L46.4257 20.4965L45.9855 20.8331L45.8645 20.9047L45.554 21.094L45.5381 21.1147L45.3009 21.2946L45.23 21.3224C45.1273 21.3917 45.0294 21.4975 44.9267 21.5667L44.8264 21.6543L44.6601 21.8063L44.555 21.8572C44.5391 21.8779 44.434 21.9288 44.4157 21.9312C44.2971 22.0211 44.1785 22.111 44.0622 22.2192L43.7383 22.4476L43.5735 22.4691L43.3657 22.5892L43.2352 22.5876C43.2034 22.629 43.1644 22.6155 43.0776 22.664C43.0434 22.6871 42.998 22.7675 42.998 22.7675L42.6485 22.9433L42.5228 22.9783L42.2282 23.147L42.1208 23.1796L41.9903 23.178C41.6289 23.2623 41.3264 23.2272 41.1784 22.9486C41.0535 22.7042 41.1021 22.3628 41.1897 22.0349L41.2479 21.7667L41.341 21.6242C41.341 21.6242 41.357 21.6035 41.3546 21.5852L41.4724 21.3464L41.5767 21.1467L41.7312 20.9032L41.9222 20.6549L41.9836 20.5538L42.1316 20.4042L42.3092 20.1949L43.0535 19.3346L43.2836 19.0998L43.395 18.955L43.5909 18.7433L43.6251 18.7202L43.7596 18.6096L44.0828 18.2324L44.3607 17.9356L44.4745 17.809L44.73 17.6268L44.746 17.6061L44.9012 17.5114L44.9537 17.486C45.0062 17.4605 45.054 17.3984 45.2299 17.3197L45.8461 16.9043L46.0013 16.8096L46.1064 16.7587C46.2138 16.7261 46.2982 16.6592 46.4056 16.6266L46.4717 16.5622L46.6524 16.52L46.7575 16.4691L46.8809 16.4158L47.1555 16.38L47.5654 16.3825C47.5861 16.3984 47.6434 16.4095 47.6617 16.4072L47.8845 16.5457L47.9267 16.7264L47.9115 16.8959C47.8757 17.0495 47.6623 17.4124 47.2731 17.4259C47.2365 17.4307 47.1839 17.4561 47.1473 17.4609L46.4333 17.5539L46.3076 17.5889L46.2025 17.6398L45.9741 17.744L45.6748 17.8761L45.2935 18.0933L44.8509 18.4116L44.7665 18.4785L44.55 18.6742L43.8049 19.3857L43.7571 19.4477L43.6162 19.6523L43.4729 19.8385L43.3543 19.9284L43.2245 20.0756L43.1927 20.117L43.0287 20.2873L43.0334 20.3239L42.879 20.5675L42.6855 20.7975L42.6879 20.8158L42.5948 20.9582L42.5335 21.0593L42.504 21.119C42.5064 21.1373 42.4928 21.1763 42.4928 21.1763L42.3973 21.3004L42.336 21.4015L42.1704 21.7023L42.0916 21.9546L42.0509 22.0716L41.9737 22.1934L41.9283 22.2738L41.9148 22.3128L41.9315 22.4409C42.0549 22.3876 42.1186 22.3049 42.2419 22.2516L42.4019 22.1935L42.6646 22.0662L42.7904 22.0312L43.393 21.6548L43.4773 21.588L43.6302 21.475L43.8586 21.3707L43.9613 21.3015C44.1006 21.2275 44.103 21.2458 44.3904 21.0222L44.5066 20.914L44.6594 20.801L44.7072 20.7389L44.8147 20.7063L45.02 20.5678L45.157 20.4755L45.2756 20.3856L45.7365 20.0649L45.8527 19.9567L46.3685 19.6289L46.4394 19.601L46.7315 19.414L46.9297 19.2207L47.2035 19.0361L47.2855 18.9509L47.4201 18.8403L47.5021 18.7551L47.7027 18.5801L47.9558 18.3795L48.5066 18.1775L48.7629 18.1441L48.9691 18.1545L49.1665 18.2405L49.1871 18.2564C49.2835 18.2811 49.4028 18.34 49.5365 18.5088L49.5508 18.6186L49.5397 18.6759L49.4808 18.7953L49.468 18.9831L49.3175 19.1144L49.2538 19.1972L49.1201 19.4566L48.9903 19.6039L48.6631 20.0933L48.6336 20.153L48.484 20.4331L48.4433 20.5501L48.4187 20.6464C48.4075 20.7037 48.3709 20.7085 48.3733 20.7268C48.4282 20.7197 48.4624 20.6966 48.5357 20.687L48.7163 20.6449L48.7896 20.6354L49.0204 20.5494L49.217 20.4866L49.3221 20.4357L49.5529 20.3497L50.1698 20.0832L50.2566 20.0347L50.4166 19.9766L50.6267 19.8748L50.7819 19.7801L50.8528 19.7522L50.9189 19.6878L51.5381 19.4395L51.6957 19.3632L51.7435 19.3011L52.6072 18.9279L52.7672 18.8699L53.119 18.7123C53.1373 18.71 53.2471 18.6956 53.2678 18.7116C53.3251 18.7227 53.4374 18.7267 53.4557 18.7243L53.4962 19.0356L53.3346 19.2242L53.1332 19.2504L52.8681 19.3594L52.6628 19.4978L52.5529 19.5122L52.3062 19.6188L52.2011 19.6697L51.788 19.9283L51.4958 20.1153L51.144 20.2728L50.7603 20.4717L50.6553 20.5227L50.5844 20.5505L50.4523 20.6794L50.2947 20.7558L50.1896 20.8067L50.0551 20.9173L49.9866 20.9635L49.5528 21.2062L49.4158 21.2985L48.9454 21.5459L48.7536 21.6454C48.7193 21.6685 48.6533 21.7329 48.635 21.7353L48.3699 21.8443L48.1319 21.8753L47.9648 21.8785L47.8685 21.8538L47.7355 21.8338L47.5469 21.6722L47.5231 21.4892C47.4929 21.4 47.4602 21.2926 47.4873 21.2146L47.5526 21.0013L47.5479 20.9647L47.684 20.7235L47.727 20.6248L47.8496 20.4227ZM52.7989 19.4243L52.8626 19.3415C52.8626 19.3415 52.8785 19.3208 52.8762 19.3025L52.9757 19.0661L53.0752 18.8297L53.2384 18.5106L53.5689 17.7601L53.6413 17.6017L53.6867 17.5213L53.8763 16.9754L54.1382 16.271C54.1629 16.1747 54.2052 15.9272 54.2315 15.7003C54.2466 15.5308 54.2116 15.405 54.1997 15.3135C54.1806 15.167 54.1687 15.0755 54.191 14.9609C54.2245 14.789 54.441 14.5932 54.6424 14.567C55.1183 14.505 55.3396 14.7741 55.271 15.2484C55.2312 15.5143 55.1476 15.7299 55.0663 15.9639L54.8163 16.7598L54.669 17.0583L54.6037 17.2716L54.536 17.4666L54.3226 17.8295L54.3027 17.9624L54.2072 18.0865C54.1164 18.2473 54.0009 18.5044 53.9285 18.6627L53.6904 19.122C53.6657 19.2183 53.6347 19.4085 53.6052 19.4682L53.4874 19.7069L53.5216 19.6839L53.731 19.4332L54.1497 18.9318L54.1951 18.8514L54.2222 18.7734L54.4889 18.5339L54.5525 18.4511L54.8009 18.214L54.8511 18.1702L55.2865 17.797L55.3573 17.7692L55.6288 17.5662C55.6813 17.5408 55.7291 17.4787 55.7816 17.4532C55.9209 17.3792 56.2155 17.2106 56.346 17.2122L56.4192 17.2026L56.8244 17.1685L57.1045 17.3182L57.3003 17.5347L57.3957 17.8388L57.4172 18.0035L57.4227 18.189L57.4147 18.4134L57.4131 18.544L57.437 18.727L57.3867 19.199C57.3939 19.2539 57.3803 19.2929 57.3875 19.3478L57.4432 19.4895L57.4734 19.5787C57.4989 19.6312 57.5498 19.7363 57.5705 19.7522L57.6007 19.8414L57.6906 19.96C57.7113 19.9759 57.693 19.9783 57.7113 19.9759L57.8856 20.0277C58.1077 20.0174 58.3433 19.968 58.6474 19.8726L58.9578 19.6832L59.0836 19.6482C59.1544 19.6204 59.2571 19.5511 59.3096 19.5257L59.4537 19.4883L59.714 19.3427L60.2346 19.0515L60.2895 19.0443L60.5864 18.8939L61.1707 18.5199L61.3872 18.3242L61.4764 18.2939L61.8529 18.0401L61.9691 17.9319L62.0989 17.7847L62.2517 17.6717L62.7333 17.3669L63.3081 16.9197L63.4084 16.8322L63.6273 16.6547L63.7141 16.6062L63.9306 16.4104L64.132 16.3842L64.2537 16.4614L64.3206 16.5458L64.3102 16.7519L64.1438 16.9039L63.8429 17.1665C63.6447 17.3599 63.4759 17.4936 63.3048 17.609L63.0564 17.8461L62.8829 17.9432L62.6321 18.162L62.4267 18.3005C62.2922 18.4111 62.1028 18.5289 61.8631 18.6904L61.5917 18.8933L60.8387 19.401L60.802 19.4057C60.736 19.4702 60.6333 19.5394 60.5855 19.6015L60.3483 19.7813L60.1015 19.888C60.0307 19.9158 59.9487 20.001 59.8802 20.0471L59.725 20.1418L59.5284 20.2046L59.3135 20.2699L59.1877 20.3049L59.1193 20.351L59.0484 20.3789L58.9959 20.4043C58.9617 20.4274 58.8908 20.4553 58.781 20.4696L58.621 20.5276L58.4451 20.6064L58.2461 20.6509L58.024 20.6612L57.9189 20.7122L57.7335 20.7177C57.5321 20.7439 57.3395 20.6946 57.1652 20.6428L57.1469 20.6452L57.0689 20.6181C56.8739 20.5504 56.7012 20.3681 56.6177 20.1556C56.5875 20.0664 56.5732 19.9566 56.5565 19.8284L56.5278 19.6088L56.5725 19.3795L56.6322 18.9808L56.7318 18.3162C56.7271 18.2796 56.7358 18.204 56.7311 18.1674C56.7255 17.9819 56.6698 17.8402 56.5552 17.8179C56.5003 17.8251 56.4111 17.8553 56.3586 17.8808C56.3586 17.8808 56.3451 17.9198 56.2925 17.9452L56.1739 18.0351L56.0028 18.1505L55.8476 18.2452L55.6151 18.4617L55.5283 18.5102L55.3691 18.7171L55.2075 18.9057L55.0069 19.0808C54.9432 19.1636 54.8182 19.3474 54.7522 19.4119L54.6017 19.5432L54.4672 19.6538L54.4194 19.7158L54.1941 19.9872L54.1599 20.0103L54.0253 20.1209L53.9433 20.2061L53.8956 20.2681L53.6934 20.5737L53.4951 20.7671L53.2109 21.1579L52.7356 21.7969L52.6401 21.9211L52.3233 22.2044L52.1609 22.2441C51.9341 22.2178 51.8394 22.0626 51.763 21.905C51.7256 21.7609 51.7129 21.5206 51.9127 21.1966L52.0147 20.9786L52.3323 20.4159L52.416 20.2002L52.5521 19.9591L52.5792 19.8811L52.7989 19.4243ZM68.005 8.46991L68.2772 8.41583L68.5199 8.42145L68.5311 8.36414L68.9371 7.6224L68.9825 7.54202L69.1641 7.2205L69.3368 6.97458L69.3981 6.87351L69.5637 6.57268L69.6115 6.5106C69.6091 6.4923 69.6226 6.4533 69.6226 6.4533L69.7341 6.30846L69.7954 6.20738L69.8432 6.14531L69.918 6.00524L69.9156 5.98693L69.9881 5.82855L70.1656 5.61925L70.2906 5.43541L70.3726 5.35026L70.4363 5.2675L70.5907 5.02397L70.7659 4.79636L70.9625 4.73352L71.1296 4.73036L71.3572 4.90551L71.4336 5.06311L71.4877 5.33533L71.3969 5.4961L71.233 5.6664L71.1263 5.84785L70.9853 6.05238L70.8946 6.21314L70.6645 6.4479L70.5101 6.69143L70.1598 7.14665L69.5826 8.00377L69.444 8.22661L69.6247 8.18445L69.9153 8.12799L70.4573 8.00153L71.137 7.93161L71.6608 7.80753L72.1734 7.74076L72.3453 7.77422L72.4734 7.75753L72.7186 7.78145C72.7576 7.79499 72.8881 7.7966 72.9247 7.79183L73.1213 7.72899L73.3848 7.75053C73.4763 7.7386 73.5631 7.69007 73.6546 7.67814L73.7828 7.66145L73.9865 7.65353L74.2134 7.67983C74.2317 7.67745 74.289 7.6886 74.3073 7.68621L74.4927 7.68067L75.0037 7.74444C75.0244 7.76036 75.1 7.76913 75.1183 7.76674L75.4112 7.72859L75.5696 7.80105L75.9405 7.78997C75.9771 7.7852 76.0161 7.79874 76.0344 7.79635L76.1562 7.87358C76.1562 7.87358 76.1538 7.85527 76.2294 7.86404L76.8853 8.03926C76.906 8.05518 76.9449 8.06872 76.9633 8.06634L77.3485 8.1651C77.3875 8.17864 77.3875 8.17864 77.4058 8.17625C77.4265 8.19217 77.4472 8.2081 77.4289 8.21048L77.5594 8.21209L77.8324 8.30686L77.9223 8.42547L78.0417 8.48439L78.1698 8.4677L78.3401 8.63169L78.524 8.75668L78.586 8.80445C78.6226 8.79968 78.6433 8.8156 78.6616 8.81322L78.9219 9.09582L78.9426 9.11174L79.0993 9.31473L79.194 9.46995L79.3309 9.80586L79.4072 9.96347L79.4359 10.1832L79.3482 10.5111L79.2734 10.6511L79.1405 10.6312L79.0346 10.5333L78.9392 10.2292C78.9344 10.1926 78.909 10.1401 78.9042 10.1035C78.8556 10.0167 78.761 9.86148 78.7172 9.81133L78.5716 9.55103L78.4148 9.34804L78.2445 9.18405L78.0607 9.05906L78.0424 9.06144L77.7415 8.89583C77.6842 8.88468 77.5855 8.84168 77.5855 8.84168C77.5672 8.84407 77.5465 8.82815 77.5465 8.82815L77.3492 8.74215L77.2346 8.71984C77.1979 8.72461 77.0467 8.70708 76.9592 8.60677L76.6703 8.5327C76.5787 8.54462 76.4275 8.52709 76.336 8.53901L76.1664 8.52386L75.9325 8.44263L75.6483 8.40518C75.4398 8.37649 75.2543 8.38202 75.0299 8.37403C74.92 8.38833 74.7688 8.3708 74.6773 8.38272L74.3589 8.36834C74.3223 8.37311 74.265 8.36195 74.2467 8.36434L74.0636 8.38819L73.9195 8.42557L73.5829 8.41357C73.5279 8.42073 73.4706 8.40957 73.434 8.41434L73.2693 8.4358L73.0265 8.43019C72.8777 8.43096 72.7312 8.45004 72.6031 8.46673L72.5322 8.49457L72.4749 8.48342C72.42 8.49058 72.3627 8.47942 72.3078 8.48658L72.1796 8.50327C71.5938 8.57958 71.008 8.65588 70.4245 8.7505L70.3537 8.77834L70.2144 8.85234L69.6859 8.9398L69.4686 8.98673L68.8262 9.20072L68.6877 9.42356L68.4902 9.76577L68.452 9.90108L68.3517 9.98861C68.2586 10.1311 68.1949 10.2138 68.12 10.3539C68.1224 10.3722 68.1113 10.4295 68.1113 10.4295L67.8613 10.7972L67.6391 11.2357L67.503 11.4769L67.2052 11.9066L66.7196 12.7518L66.6129 12.9333L66.3223 13.4179L66.2817 13.5349L66.1861 13.6591C66.1543 13.7005 66.1272 13.7785 66.0978 13.8382L66.0142 14.0538L65.921 14.1963L65.8119 14.3594L65.7005 14.5043L65.5938 14.6857L65.5643 14.7454L65.5126 14.9197L65.1766 15.4848L64.9744 15.7904L64.5747 16.4382L64.3096 16.9754L64.0396 17.476C64.015 17.5723 63.9919 17.5381 63.9489 17.6368L63.706 18.0594L63.6471 18.1787L63.4934 18.5711C63.4711 18.6857 63.4258 18.7661 63.4034 18.8807L63.2538 19.1609L63.1025 19.5715L63.0077 19.8445L63.0196 19.9361L63.018 20.0666L62.9026 20.3237C62.9121 20.3969 62.8532 20.5163 62.8627 20.5895L62.8659 20.7566L62.8842 20.7543L63.2042 20.6381L63.3275 20.5848L63.4692 20.5291L63.6038 20.4185L63.7431 20.3445L63.8824 20.2705L64.0169 20.1599L64.1427 20.1249L64.3003 20.0485L64.3846 19.9817L64.4945 19.9674L64.9395 19.6674L65.2658 19.4573L65.4346 19.3236L65.5946 19.2655L65.663 19.2194L66.1629 18.9122L66.3659 18.7555L66.4368 18.7276L67.2105 18.2359L67.4135 18.0791L67.5345 18.0075L67.7263 17.908L67.9683 17.7648L68.0296 17.6637L68.2987 17.4425L68.5088 17.3407L68.7532 17.2158L69.1958 16.8975L69.2483 16.872L69.3463 16.7662L69.6177 16.5632L69.7045 16.5147L69.757 16.4892L69.7912 16.4662L69.9098 16.3762L70.1271 16.3293L70.2489 16.4066L70.2887 16.5689L70.2894 16.7178L70.1207 16.8515L70.018 16.9207L69.9862 16.9621L69.5348 17.356L69.5189 17.3767L69.3819 17.469L69.1973 17.6234L68.9258 17.8263L68.7364 17.944L68.5764 18.0021L68.3368 18.1636L68.2182 18.2536L68.1863 18.2949L67.9491 18.4748L67.8329 18.583L67.399 18.8257L67.1873 19.0581L67.0639 19.1114L66.8538 19.2132L66.8355 19.2156C66.8012 19.2387 66.7535 19.3008 66.7375 19.3214C66.7057 19.3628 66.6532 19.3883 66.6372 19.409L66.5298 19.4416L66.3905 19.5156L66.3037 19.5641L66.1596 19.6015C66.1413 19.6039 66.0912 19.6477 66.0912 19.6477L65.9885 19.7169L65.6486 19.966L65.4774 20.0813L65.2975 20.2723L65.2426 20.2795L65.0738 20.4132L64.7952 20.5612L64.4943 20.8238L64.316 20.8842L64.0422 21.0688L63.5877 21.2956L62.9366 21.5852L62.701 21.6345L62.607 21.6281L62.4741 21.6082L62.3619 21.6042L62.1303 21.5413L62.0125 21.3518L61.9544 21.1919L61.9258 20.9722C61.9211 20.9356 61.9298 20.8599 61.9274 20.8416C61.9291 20.7111 61.9625 20.5392 62.0183 20.2527C62.0135 20.2161 62.0358 20.1014 62.0311 20.0648L62.1059 19.9248L62.0987 19.8698L62.1234 19.7735L62.2301 19.5921L62.2795 19.3995L62.4332 19.0071L62.508 18.867C62.5033 18.8304 62.5303 18.7524 62.5279 18.7341L62.6211 18.5917L62.6983 18.4699C62.7302 18.4285 62.7389 18.3529 62.7708 18.3115L62.8456 18.1714L62.9635 17.9327L63.0861 17.7305L63.1609 17.5905L63.2859 17.4066L63.3448 17.2872L63.4674 17.0851L63.5924 16.9013C63.5877 16.8647 63.6012 16.8257 63.5988 16.8073L63.6943 16.6832L63.7556 16.5821L63.8783 16.38L63.9666 16.2009L64.0686 15.9828L64.1569 15.8038L64.2795 15.6016C64.2772 15.5833 64.2955 15.5809 64.2931 15.5626L64.5065 15.1997L64.5924 15.0023L64.8154 14.7127L64.9674 14.4508C65.0582 14.2901 65.1466 14.111 65.2851 13.8882L65.3281 13.7895L65.4738 13.6215C65.6529 13.2817 65.8432 12.8846 66.0248 12.5631L66.1044 12.4596L66.379 11.9956C66.4905 11.8508 66.52 11.7911 66.5789 11.6717L66.6673 11.4926L66.8424 11.265L66.9077 11.0517L67.1163 10.6522L67.1712 10.6451L67.1983 10.5671L67.3639 10.2662L67.5478 9.963L67.6728 9.77916L67.7294 9.64148L67.9045 9.41387L67.9133 9.33826L67.8217 9.35018L67.6068 9.41541L67.0624 9.52356L66.5227 9.66833L66.3603 9.7081L66.2346 9.7431L65.7729 9.91494L65.6312 9.97063L64.7286 10.3302L64.5893 10.4042L64.4659 10.4575L64.3083 10.5339L63.7511 10.8299L63.5959 10.9246L63.2209 11.0479L62.8867 11.0542L62.694 11.0048L62.5699 10.9093L62.4227 10.7795L62.3734 10.5439L62.3885 10.3744C62.4156 10.2964 62.4403 10.2001 62.6297 10.0823L62.7507 10.0107C63.0269 9.84442 63.1846 9.76804 63.4703 9.67496L63.7035 9.60735L63.9798 9.44105L64.2886 9.3822L64.4032 9.40451L65.1235 9.21759L65.1761 9.19213L65.6791 9.05213L66.0588 8.96544L66.1161 8.97659L66.2419 8.94159L66.2968 8.93444L66.7768 8.76021L66.9002 8.70691L67.01 8.6926L67.3164 8.61545L67.369 8.58999L67.4629 8.59637L67.767 8.50091L68.005 8.46991ZM74.5818 15.3395L74.5866 15.3761C74.5778 15.4517 74.585 15.5066 74.4838 15.8735C74.4727 15.9308 74.4528 16.0638 74.4257 16.1418L74.276 16.4219L74.0937 16.5946L73.9504 16.7808L73.8095 16.9853L73.6455 17.1556C73.3724 17.4891 73.0031 17.7978 72.6154 18.109L72.5812 18.1321L72.3646 18.3278L72.2596 18.3787L72.2094 18.4225L72.0589 18.5538L71.9475 18.6987L71.84 18.7313C71.8265 18.7703 71.7787 18.8323 71.7787 18.8323L71.6235 18.927L71.571 18.9525L71.3768 19.0336L71.2534 19.087L71.1825 19.1148C71.1666 19.1355 71.1348 19.1769 71.1165 19.1793L71.0639 19.2047C70.7511 19.3758 70.5616 19.4936 70.3833 19.554L70.3356 19.6161L70.2281 19.6487L69.9766 19.7187L69.8484 19.7354L69.4982 19.7624C69.3335 19.7839 69.1846 19.7846 69.0724 19.7806C68.9785 19.7742 68.8662 19.7702 68.6529 19.7049L68.614 19.6914C68.419 19.6237 68.1547 19.4533 68.1014 19.33L68.0274 19.1907L67.9877 19.0283L68.0132 18.6526L68.1127 18.4162L68.2465 18.1568L68.8197 17.4119L69.0131 17.1819L69.1771 17.0116L69.2408 16.9288L69.6054 16.5835L69.6213 16.5628C69.6373 16.5421 69.685 16.48 69.7193 16.4569L69.8992 16.2659L69.9812 16.1808L70.3776 15.794L70.4891 15.6492L70.544 15.642L70.7104 15.49L70.8951 15.3357L71.114 15.1582L71.4467 14.8542L71.5311 14.7874L71.6155 14.7205L71.3409 14.7563C71.3043 14.7611 71.27 14.7841 71.2151 14.7913C71.0894 14.8263 70.927 14.8661 70.7622 14.8875L70.3069 14.9654L70.0801 14.9391L69.9217 14.8667L69.7514 14.7027L69.7411 14.4806L69.8836 14.1456L70.1097 14.023L70.3246 13.9578L70.5602 13.9085L70.6955 13.9467L71.0139 13.9611C71.2702 13.9277 71.4923 13.9174 71.7533 13.9206L72.0279 13.8849L72.3049 13.8674L72.6456 13.7672L72.7212 13.7759L72.9727 13.7059C73.007 13.6829 73.0778 13.655 73.0937 13.6343L73.2943 13.4593L73.4312 13.367L73.4495 13.3646L73.5865 13.2723L73.7488 13.2325L73.8929 13.1951C74.0004 13.1625 74.1811 13.1204 74.3116 13.122L74.4214 13.1077L74.5177 13.1323C74.5933 13.1411 74.692 13.1841 74.7517 13.2136L75.1815 13.0831L75.3941 12.9996L75.6663 12.9455L75.9473 12.8158L76.0914 12.7784L76.272 12.7363L76.6382 12.6886L76.7822 12.6512L77.0226 12.6385C77.0775 12.6314 77.1508 12.6218 77.2216 12.594L77.4047 12.5701C77.4596 12.563 77.5121 12.5375 77.5671 12.5304L77.6721 12.4794L77.7477 12.4882L77.8576 12.4739L77.965 12.4413L78.0932 12.4246L78.2969 12.4167L78.4776 12.3745L78.6105 12.3944L78.6655 12.3873L78.8143 12.3865L78.9082 12.3929C79.0571 12.3921 79.2473 12.4232 79.4948 12.4654L79.5338 12.479L79.607 12.4694L79.7837 12.5395L79.7654 12.5419C79.935 12.557 79.9397 12.5936 79.9811 12.6255C80.0201 12.639 80.0384 12.6366 80.0567 12.6343L80.3257 12.8412L80.418 12.9782L80.4649 13.1955L80.4522 13.3833L80.3845 13.5783L80.2531 13.8561C80.1966 13.9937 80.1647 14.0351 80.117 14.0972L80.0214 14.2213L79.8089 14.3049L79.6967 14.3009L79.6497 14.0836L79.6561 13.9897L79.6761 13.8567L79.7302 13.7008L79.8297 13.4644L79.872 13.2169L79.8648 13.1619L79.7088 13.1078L79.5687 13.0329L79.2846 12.9955C78.8699 12.9564 78.3756 13.0208 78.101 13.0566L77.8264 13.0923L77.6091 13.1393C77.5176 13.1512 77.4468 13.179 77.3759 13.2069C77.3234 13.2323 77.2502 13.2419 77.1586 13.2538C76.3603 13.4136 75.8023 13.5608 75.2467 13.7262L75.105 13.7819L75.0389 13.8464L74.6887 13.8734L74.3297 13.976L73.8267 14.116L73.7057 14.1876L73.8068 14.2489L73.8458 14.2625L74.0041 14.3349L74.3376 14.608L74.4323 14.7632L74.5524 14.971L74.5818 15.3395ZM73.4753 16.1352L73.5255 16.0915C73.6481 15.8893 73.7022 15.7333 73.7564 15.5773L73.7421 15.4675L73.7891 15.2566C73.7819 15.2016 73.7955 15.1626 73.7859 15.0894C73.7629 15.0552 73.6729 14.9366 73.6705 14.9183L73.6499 14.9024L73.5098 14.8275L73.3514 14.7551L73.2368 14.7327L73.1222 14.7104L72.8858 14.6109C72.8858 14.6109 72.8492 14.6157 72.8285 14.5998L72.7123 14.708C72.5276 14.8624 72.2792 15.0995 71.7339 15.487L71.2619 15.865L71.0613 16.0401L70.9769 16.1069C70.8583 16.1969 70.7445 16.3234 70.6258 16.4133L70.5279 16.5191L70.3114 16.7149L70.1339 16.9242L69.9492 17.0786L69.8353 17.2051L69.6212 17.4192C69.5894 17.4606 69.4938 17.5847 69.4803 17.6237L69.3441 17.8649L69.2191 18.0487C69.1443 18.1888 69.0718 18.3472 69.0336 18.4825C69.0177 18.5031 69.0225 18.5398 69.0225 18.5398L68.9978 18.6361L68.9985 18.7849L68.9874 18.8422L69.0017 18.9521L69.1258 19.0476L69.2245 19.0906L69.2611 19.0858C69.8334 19.0485 69.9544 18.9769 70.514 18.6992C70.795 18.5695 71.0553 18.4239 71.2814 18.3014L71.3156 18.2783L71.6237 18.0706L71.9357 17.7507L72.0639 17.734L72.5312 17.3194L72.6131 17.2343C72.7453 17.1053 72.8727 16.9398 73.0024 16.7926L73.0478 16.7122L73.2094 16.5236L73.3527 16.3374C73.3503 16.3191 73.3639 16.2801 73.3639 16.2801L73.4753 16.1352ZM86.3472 11.908L86.371 12.091C86.3575 12.13 86.3623 12.1666 86.3647 12.1849C86.3813 12.3131 86.3957 12.4229 86.2547 12.6275C86.1799 12.7675 85.9864 12.9975 85.7341 12.9187L85.5208 12.8534L85.2519 12.6464L85.1985 12.523L85.15 12.4363L85.1309 12.2898L85.1532 12.1752L85.1135 12.0128L85.0649 11.926L85.0052 11.8966L84.9042 11.8353L84.7896 11.813C84.7163 11.8225 84.659 11.8114 84.5858 11.8209L84.1647 11.8757C84.0708 11.8694 84 11.8972 83.6275 12.0388L83.3648 12.1661L82.4669 12.5623L82.2066 12.708L81.9694 12.8878L81.8301 12.9618L81.6176 13.0453L81.2888 13.2371L81.202 13.2856L80.8096 13.5602L80.5771 13.7766L80.5135 13.8594L80.2738 14.0209L80.1759 14.1267L80.1099 14.1912L80.0096 14.2787L79.9618 14.3408L79.8416 14.5613L79.6911 14.6926L79.6274 14.7753L79.4427 14.9297C79.3974 15.0101 79.3544 15.1088 79.3615 15.1637L79.4077 15.2322L79.4721 15.2982L79.7618 15.5212L79.8605 15.5641L80.0579 15.6501C80.1335 15.6589 80.2322 15.7019 80.3078 15.7107L80.5028 15.7784L80.6405 15.8349C80.6795 15.8484 80.7734 15.8548 80.81 15.8501L80.9891 15.9384L81.4133 16.0507C81.4682 16.0436 81.5645 16.0683 81.6194 16.0611L81.8256 16.0715L81.9999 16.1233L82.0365 16.1185L82.1169 16.1639L82.479 16.2284C82.5339 16.2213 82.5912 16.2324 82.6461 16.2253L82.7448 16.2683C82.8754 16.2699 83.029 16.3057 83.1778 16.3049C83.251 16.2954 83.384 16.3153 83.4572 16.3058L83.8719 16.3449L84.3008 16.4938L84.5197 16.7445L84.569 16.9801L84.5674 17.1107L84.4583 17.2738L84.3126 17.4417L84.0364 17.608L83.9449 17.62L83.8446 17.7075L83.5978 17.8141L83.5588 17.8006L83.3829 17.8793L82.9117 17.9779L82.095 18.1402L81.857 18.1712L81.1295 18.3032L80.9098 18.3318L80.6742 18.3811L80.3973 18.3986L80.1847 18.4821L79.8735 18.5226L79.3928 18.548L79.0999 18.5862L78.9192 18.6283L78.9375 18.6259L78.6151 18.7238L78.5236 18.7357L78.2744 18.824L78.128 18.8431C78.0205 18.8757 77.9178 18.9449 77.8104 18.9776L77.5795 19.0635L77.3622 19.1104L77.1632 19.1549L76.7199 19.3244L76.6307 19.3546L76.3792 19.4246L76.306 19.4342L76.2375 19.4803L76.1118 19.5153L75.9231 19.3537L75.8698 19.2303L75.9264 19.0926L76.084 19.0163L76.2575 18.9192L76.7009 18.7497L76.9341 18.6821L77.1832 18.5938L77.3982 18.5286L77.8845 18.2604L78.1225 18.2294L78.2642 18.1737L78.5412 18.1563L78.7402 18.1117L78.8819 18.056L79.2615 17.9694L79.568 17.8922L79.8402 17.8381L80.2199 17.7514L80.4762 17.7181L80.6179 17.6624L80.6752 17.6735L80.8033 17.6568C80.8582 17.6497 80.8558 17.6314 80.9108 17.6242C80.9267 17.6035 81.0318 17.5526 81.066 17.5295L81.5372 17.4309L81.8023 17.3219L82.443 17.2384L82.5481 17.1875L82.7311 17.1637L82.5775 17.1278L82.3642 17.0625L82.1923 17.0291C82.1374 17.0362 82.0594 17.0092 82.0228 17.0139L81.9289 17.0075L81.4219 16.8315C81.3853 16.8363 81.3622 16.8021 81.3439 16.8045L81.1696 16.7527L80.8783 16.6603L80.6857 16.6109C80.6284 16.5998 80.6419 16.5608 80.5663 16.552C80.4517 16.5297 80.4103 16.4979 80.1079 16.4628C79.975 16.4429 79.897 16.4158 79.7752 16.3386L79.7362 16.325C79.6996 16.3298 79.6423 16.3187 79.624 16.321L79.4521 16.2876C79.4154 16.2924 79.3581 16.2812 79.3398 16.2836L79.1974 16.1904L79.117 16.1451L79.1377 16.161L78.9379 16.0567L78.6689 15.8497L78.5854 15.6372L78.5711 15.5273L78.5703 15.3785C78.5767 15.2846 78.6197 15.1859 78.6922 15.0275L78.7216 14.9678C78.7192 14.9495 78.7487 14.8898 78.7463 14.8715L78.9302 14.5683L79.1189 14.3017L79.2439 14.1178L79.31 14.0534C79.3259 14.0327 79.3689 13.934 79.3665 13.9157L79.5193 13.8027L79.5671 13.7406L79.7653 13.5472L80.0025 13.3674L80.274 13.1645L80.3584 13.0976L80.6139 12.9154L80.6298 12.8947L80.7508 12.8231L80.8169 12.7587L81.1067 12.5533L81.2141 12.5207L81.5978 12.3218L81.753 12.2271L81.8947 12.1714L82.3699 11.9606L82.6692 11.8285L83.0529 11.6296L83.1762 11.5763L83.2654 11.5461C83.2654 11.5461 83.2837 11.5437 83.3362 11.5182L83.5145 11.4578C83.6196 11.4068 83.7271 11.3742 83.8345 11.3416L84.3217 11.2223L85.0173 11.1317L85.393 11.1572L85.5052 11.1612L85.7527 11.2035L86.0122 11.3372L86.1594 11.467L86.2056 11.5354L86.2867 11.7297L86.3472 11.908Z" fill="white"/>
</svg>
